<svg xmlns="http://www.w3.org/2000/svg" width="250.119" height="144.223" viewBox="0 0 250.119 144.223">
    <defs>
        <linearGradient id="linear-gradient" x1=".006" x2=".994" y1=".5" y2=".5" gradientUnits="objectBoundingBox">
            <stop offset="0" stop-color="#f7d1c7"/>
            <stop offset=".14" stop-color="#f5d2b0"/>
            <stop offset=".39" stop-color="#f3d48d"/>
            <stop offset=".62" stop-color="#f1d674"/>
            <stop offset=".83" stop-color="#efd764"/>
            <stop offset="1" stop-color="#efd75f"/>
        </linearGradient>
        <linearGradient id="linear-gradient-2" x2="1" y1=".871" y2=".871" gradientUnits="objectBoundingBox">
            <stop offset="0" stop-color="#f7e6c6"/>
            <stop offset=".13" stop-color="#f6d5b2"/>
            <stop offset=".38" stop-color="#f5b98f"/>
            <stop offset=".61" stop-color="#f4a576"/>
            <stop offset=".83" stop-color="#f39866"/>
            <stop offset="1" stop-color="#f39461"/>
        </linearGradient>
        <linearGradient id="linear-gradient-3" x2="1" y1=".5" y2=".5" gradientUnits="objectBoundingBox">
            <stop offset="0" stop-color="#e5670c"/>
            <stop offset="1" stop-color="#fbbd30"/>
        </linearGradient>
        <style>
            .cls-2{fill:#f4f4f4}.cls-3{fill:#fff0da}.cls-4{fill:#fcedde}.cls-5{fill:#fefbe5}.cls-7{fill:#cecdcc}.cls-9{fill:#e72d50}.cls-12{fill:#fcbd17}.cls-17{fill:#f19330}.cls-18{fill:#a5c83c}.cls-20{fill:#dadc35}.cls-22{fill:#e95227}.cls-23{fill:#f8e8c4}.cls-24{fill:#ba862e}.cls-25{fill:#f6c914}.cls-26{fill:#f7b41d}.cls-28{fill:#fff}.cls-31{fill:#d3ecf8}.cls-32{fill:#828282}.cls-33{fill:#bab09e}.cls-34{fill:#243862}.cls-35{fill:#f7b280}.cls-36{fill:#2b498d}.cls-38{fill:#a0c1e7}.cls-41{fill:#3e907c}.cls-43{fill:#173658}.cls-44{fill:#f4a493}.cls-46{fill:#ee765b}.cls-47{fill:#37548b}.cls-48{fill:#38557c}.cls-49{fill:#eea886}.cls-50{fill:#ffd673}.cls-53{fill:#a88d4a}.cls-55{fill:#303669}.cls-57{fill:#c3c2d4}
        </style>
    </defs>
    <g id="Layer_1" transform="translate(.122 -5.991)">
        <path id="Path_1954" fill="#d4d2ea" d="M228.64 50.43a124.4 124.4 0 0 0-14.86-11.93c-12.05-8.39-24.72-18.08-37.73-24.82C164.5 7.7 151.12 4.13 138.42 7c-14.48 3.23-27 14.48-41.88 14-11.38-.36-21.67-7.7-33.05-8-7.37-.17-14.5 2.68-20.86 6.41C22.12 31.43 8 52.91 2.61 76.06A112.75 112.75 0 0 0 .89 115.8 134 134 0 0 0 4.82 135c.46 1.64 11.09 6.62 13.16 6.62 21.65 0 36.26 3.21 57.91 3.21 37.61 0 75-4.34 112.58-4.34 6.09 0 11 1.51 17.06 1.51 3.28 0 7.48 1.24 10.75 1.2 5.05-.06 10.06 2.53 14.61-.6 1.51-1 3.34 3.37 4.37 1.85 14.8-21.69 19.53-53.4 6.7-77.09a68.911 68.911 0 0 0-13.32-16.93z"/>
        <path id="Path_1955" d="M248.36 144.75c-4 5.47-76.22 5.25-130.65 5.18-64.14-.08-118.88 2.64-116.86-7.26 2.39-11.73 22.22-13.67 116.86-14.14 67.03-.36 141.72 1.05 130.65 16.22z" class="cls-2"/>
        <path id="Path_1956" d="M34.71 87.48s-3.33-.49-2.85-3.07A5.88 5.88 0 0 1 33.37 82s.6 3.33 1.22 3.18-.94-3.67-.94-3.67S36 79 37.19 78.68c0 0-.64 3.73-.08 3.43s1.4-4.11 1.4-4.11 2.75-1.68 3.9-.11.71 2.75.32 3-3.23 1.32-3 1.66 2.34.19 3.28-.54c0 0-.07 3.34-1.66 3.78s-2.44-.33-3.42 0-1.58.81-1 .89 2.12-.72 3.14-.36 1.79.53.47 1.37-4 1.63-4.88.73z" class="cls-3"/>
        <path id="Path_1957" d="M41.27 78.93s-6.74 5.43-6.56 8.55a6.29 6.29 0 0 1 .29 3l.21.55a8.57 8.57 0 0 1 .43-2.6s-2.64-1.81 5.63-9.5z" class="cls-3"/>
        <path id="Path_1958" d="M35 90.43a5.44 5.44 0 0 0 1 4.19l.28-.2a8.73 8.73 0 0 1-1.06-3.76c.16-1.45-.22-.23-.22-.23z" class="cls-3"/>
        <path id="Path_1959" d="M20.59 95.5s1.35-3.77-1.62-4.7a7 7 0 0 0-3.38.23s3.16 2.49 2.66 3-3.32-3-3.32-3S11 92.13 10 93.18c0 0 4.25 1.42 3.63 1.84s-5.12-.85-5.12-.85-3.3 2-2.29 4 2.48 2.28 3 2 3.19-2.65 3.42-2.24-1.1 2.56-2.39 3.13c0 0 3.54 1.8 4.89.37s1-2.73 1.86-3.59 1.73-1.2 1.49-.56-1.93 1.82-2.12 3.09-.45 2.17 1.16 1.26S21.44 98.46 21 97z" class="cls-3"/>
        <path id="Path_1960" d="M8 97.59s9.44-4 12.6-2.09a7.52 7.52 0 0 0 2.94 2l.46.5s-2.33-1.11-3-1c0 0-.35-3.77-13 .59z" class="cls-3"/>
        <path id="Path_1961" d="M23.53 97.45a6.41 6.41 0 0 1 3.81 3.4L27 101s-1.73-2.56-3.33-3.2-.14-.35-.14-.35z" class="cls-3"/>
        <path id="Path_1962" d="M23 89.82s-5.16 1.08-5.84-3a9.15 9.15 0 0 1 .91-4.36s2.69 4.57 3.51 4-3.36-4.88-3.36-4.88 2.12-4.94 3.68-6c0 0 1.07 5.81 1.73 5.07s-.18-6.83-.18-6.83 3.14-4 5.68-2.26 2.53 3.65 2.09 4.27-4 3.68-3.54 4.06 3.55-1 4.53-2.56c0 0 1.7 4.94-.41 6.45s-3.75.83-5 1.78-1.88 2-1 1.85 2.73-2.19 4.42-2.21 2.92-.2 1.44 1.74-4.92 4.53-6.77 3.71z" class="cls-3"/>
        <path id="Path_1963" d="M28 73.74s-7 11.6-5 16.08A9.67 9.67 0 0 1 25 94l.61.7s-1-3.25-.76-4c.02-.05-4.85-1.21 3.15-16.96z" class="cls-3"/>
        <path id="Path_1964" d="M25 94a8.51 8.51 0 0 0 3.75 5.6l.3-.43s-3-2.73-3.58-4.94S25 94 25 94z" class="cls-3"/>
        <path id="Path_1965" d="M157.39 88.16s3.37 0 3.25-2.63a5.92 5.92 0 0 0-1.15-2.61s-1.07 3.22-1.66 3 1.45-3.5 1.45-3.5-2-2.8-3.11-3.29c0 0 .11 3.78-.4 3.41s-.81-4.3-.81-4.3-2.49-2-3.85-.65-1.09 2.62-.73 3 3 1.76 2.75 2.06-2.34-.13-3.17-1c0 0-.4 3.31 1.12 4s2.45 0 3.38.44 1.45 1 .87 1-2-1-3.06-.8-1.85.27-.66 1.29 3.68 2.17 4.73 1.41z" class="cls-3"/>
        <path id="Path_1966" d="M152.1 78.78s5.91 6.32 5.29 9.38a6.28 6.28 0 0 0-.7 2.89l-.29.51a8.46 8.46 0 0 0-.06-2.63s2.86-1.37-4.24-10.15z" class="cls-3"/>
        <path id="Path_1967" d="M156.69 91.05a5.44 5.44 0 0 1-1.6 4l-.24-.23a8.8 8.8 0 0 0 1.58-3.57c.05-1.46.26-.2.26-.2z" class="cls-3"/>
        <path id="Path_1968" d="M170.24 98.09s-.81-3.91 2.26-4.42a6.93 6.93 0 0 1 3.31.7s-3.47 2-3.06 2.65 3.72-2.53 3.72-2.53 3.74 1.62 4.57 2.8c0 0-4.41.8-3.85 1.3s5.19-.12 5.19-.12 3 2.39 1.7 4.31-2.78 1.91-3.25 1.58-2.78-3.07-3.07-2.69.73 2.69 1.93 3.43c0 0-3.75 1.28-4.89-.32s-.62-2.84-1.34-3.82-1.55-1.43-1.4-.76 1.66 2.08 1.67 3.36.14 2.21-1.33 1.08-3.42-3.74-2.79-5.14z" class="cls-3"/>
        <path id="Path_1969" d="M182.42 101.94s-8.78-5.32-12.18-3.85a7.47 7.47 0 0 1-3.18 1.52l-.53.46s2.47-.78 3.08-.57c0 0 .89-3.66 12.81 2.44z" class="cls-3"/>
        <path id="Path_1970" d="M167.06 99.61a6.47 6.47 0 0 0-4.26 2.83l.33.22s2.08-2.29 3.76-2.7.17-.35.17-.35z" class="cls-3"/>
        <path id="Path_1971" d="M168.64 92.13s5 1.79 6.2-2.12a9.08 9.08 0 0 0-.29-4.45s-3.3 4.15-4 3.49 4-4.36 4-4.36-1.41-5.19-2.8-6.5c0 0-1.88 5.6-2.43 4.77s1.14-6.74 1.14-6.74-2.55-4.35-5.3-3-3 3.26-2.67 3.94 3.47 4.2 2.93 4.51-3.37-1.46-4.12-3.17c0 0-2.38 4.66-.51 6.44s3.6 1.35 4.74 2.48 1.57 2.28.73 2-2.4-2.55-4.07-2.81-2.86-.6-1.67 1.53 4.24 5.17 6.19 4.62z" class="cls-3"/>
        <path id="Path_1972" d="M165.93 75.51s5.27 12.49 2.71 16.62a9.86 9.86 0 0 0-2.58 3.87l-.7.6s1.49-3.07 1.33-3.9c0-.01 4.95-.48-.76-17.19z" class="cls-3"/>
        <path id="Path_1973" d="M166.06 96a8.5 8.5 0 0 1-4.5 5l-.23-.48s3.38-2.27 4.24-4.38.49-.14.49-.14z" class="cls-3"/>
        <path id="Path_1974" d="M232.66 100.54s-1-3.22 1.53-3.9A5.84 5.84 0 0 1 237 97s-2.74 2-2.34 2.48 2.9-2.44 2.9-2.44 3.27 1.05 4.08 2c0 0-3.64 1-3.13 1.42s4.34-.54 4.34-.54 2.71 1.76 1.79 3.47-2.17 1.84-2.59 1.6-2.59-2.34-2.8-2 .84 2.19 1.9 2.72c0 0-3 1.39-4.12.14s-.76-2.33-1.45-3.09-1.41-1.07-1.23-.52 1.56 1.6 1.68 2.67.3 1.85-1 1-3.19-2.85-2.78-4.08z" class="cls-3"/>
        <path id="Path_1975" d="M243.2 102.74s-7.81-3.72-10.54-2.2a6.22 6.22 0 0 1-2.54 1.54l-.4.43a8.671 8.671 0 0 1 2.53-.74s.44-3.14 10.95.97z" class="cls-3"/>
        <path id="Path_1976" d="M230.12 102.08a5.44 5.44 0 0 0-3.33 2.73l.3.16a8.74 8.74 0 0 1 2.92-2.58c1.37-.49.11-.31.11-.31z" class="cls-3"/>
        <path id="Path_1977" d="M225.47 91s-3.2-4.18.15-6.54A9.12 9.12 0 0 1 230 83.4s-3 4.4-2.11 4.9 2.95-5.14 2.95-5.14 5.37-.23 7 .69c0 0-4.77 3.49-3.82 3.76s6.08-3.12 6.08-3.12 4.93 1.11 4.5 4.13-2.2 3.86-3 3.74-5.06-2-5.19-1.43 2.42 2.77 4.27 3c0 0-3.72 3.67-6 2.43s-2.37-3-3.78-3.76-2.66-.81-2.1-.1 3.16 1.51 3.91 3 1.44 2.55-.95 2.05-6.21-2.47-6.28-4.5z" class="cls-3"/>
        <path id="Path_1978" d="M242.14 88.57s-13.48-1.26-16.67 2.43a9.71 9.71 0 0 1-2.89 3.63l-.36.85s2.47-2.34 3.31-2.45c0-.03-1.04-4.84 16.61-4.46z" class="cls-3"/>
        <path id="Path_1979" d="M222.58 94.64a8.51 8.51 0 0 0-3.43 5.81l.53.07s1.14-3.91 2.9-5.36 0-.52 0-.52z" class="cls-3"/>
        <path id="Path_1980" d="M93.45 87.12s3-1.63 1.67-3.94a6 6 0 0 0-2.3-1.8s.59 3.42-.06 3.49-.37-3.87-.37-3.87-3.15-1.56-4.39-1.46c0 0 1.91 3.36 1.27 3.27s-2.79-3.5-2.79-3.5-3.24-.65-3.79 1.26.27 2.9.75 3 3.57.14 3.48.54-2.18 1-3.33.63c0 0 1.23 3.19 2.91 3s2.23-1.16 3.27-1.23 1.8.23 1.27.5-2.28.06-3.13.76-1.55 1.13 0 1.48 4.37.19 5-1z" class="cls-4"/>
        <path id="Path_1981" d="M84.16 81.2s8.38 2.86 9.29 5.92a6.46 6.46 0 0 0 .75 2.94v.6a8.48 8.48 0 0 0-1.32-2.34s1.92-2.62-8.72-7.12z" class="cls-4"/>
        <path id="Path_1982" d="M94.2 90.06a5.54 5.54 0 0 1 .49 4.38l-.33-.09s.37-2.64-.29-4 .13-.29.13-.29z" class="cls-4"/>
        <path id="Path_1983" d="M96.5 86.86s-3.92-2.28-2-5.26a7.79 7.79 0 0 1 3.1-2.28s-.92 4.48-.08 4.6.67-5.06.67-5.06 4.2-1.94 5.84-1.76c0 0-2.66 4.35-1.82 4.25s3.79-4.48 3.79-4.48 4.29-.72 4.94 1.83-.49 3.79-1.12 3.94-4.71 0-4.61.56 2.83 1.42 4.37 1c0 0-1.76 4.15-4 3.9s-2.88-1.63-4.26-1.76-2.38.22-1.7.61 3 .17 4.11 1.13 2 1.55-.09 1.94-5.76.07-6.47-1.53z" class="cls-4"/>
        <path id="Path_1984" d="M109 79.46s-11.15 3.41-12.49 7.4a8.38 8.38 0 0 1-1.11 3.84v.8s1.21-2.68 1.85-3c-.03-.04-2.46-3.57 11.75-9.04z" class="cls-4"/>
        <path id="Path_1985" d="M95.39 90.7a7.3 7.3 0 0 0-.83 5.75l.44-.11s-.37-3.49.55-5.23-.16-.41-.16-.41z" class="cls-4"/>
        <path id="Path_1986" d="M61.53 110.64A22.5 22.5 0 0 1 39 133.14c-12.43 0-20-10.33-22.5-22.5C14.2 99.25 23.73 89 39 88.14c17.85-.98 22.53 10.07 22.53 22.5z" class="cls-5"/>
        <path id="Path_1987" fill="#8c9e9d" d="M37.15 112.13l-4.5-13.07.66-.92 4.75 13.71z"/>
        <path id="Path_1988" d="M45.95 106.31l-1.01 16.83h-5.91v-16.83z" class="cls-7"/>
        <path id="Path_1989" d="M39.03 106.31v16.83h-5.9l-1.02-16.83z" class="cls-7"/>
        <path id="Rectangle_760" d="M0 0H15.02V1.09H0z" class="cls-7" transform="translate(31.52 105.22)"/>
        <path id="Path_1990" fill="#d62128" d="M45.2 118.82H32.87l-.51-8.43h13.35z"/>
        <path id="Path_1991" d="M118.84 110.64c-1.11 12.38-10.07 22.37-22.5 22.5-13.92.15-24-9.92-22.5-22.5 1.42-12.21 10-23.25 22.5-22.5 12.96.77 23.47 11.73 22.5 22.5z" class="cls-5"/>
        <path id="Path_1992" d="M92.19 98.87a1.15 1.15 0 0 0-2.08-.13L89 101c.23.1.45.21.66.32 1.2-2.36 1.26-2.41 1.45-2.44s.37.19.44.37l3.08 8.75h.86z" class="cls-9"/>
        <path id="Path_1993" fill="#a2cfdc" d="M102.83 105.45v4.15l-1.48 13.54h-9.79c-.88-8.21-1-9.15-1.43-13.44v-4.25z"/>
        <path id="Path_1994" fill="#5f3b16" d="M102.08 105.35v-1.57H90.91v1.57h-1.7v2.2h14.52v-2.2z"/>
        <path id="Path_1995" d="M102.55 112.15l-.43 3.95H90.81l-.42-3.95z" class="cls-9"/>
        <path id="Path_1996" d="M176.16 110.87c2 12.12-10.08 22.72-22.5 22.5-14.12-.25-24.7-10.4-22.5-22.5s1.55-22.91 22.5-22.5c12.42.24 20.48 10.23 22.5 22.5z" class="cls-5"/>
        <path id="Path_1997" d="M165.45 109.62a3.81 3.81 0 0 0 0-.59c0-4.39-5.33-8-11.9-8s-11.9 3.57-11.9 8a5.679 5.679 0 0 0 0 .59z" class="cls-12"/>
        <path id="Path_1998" d="M141.72 117a3.594 3.594 0 0 0 0 .47 3 3 0 0 0 2.82 3.21h18.16a3 3 0 0 0 2.82-3.21 3.589 3.589 0 0 0 0-.47z" class="cls-12"/>
        <path id="Path_1999" fill="#683c17" d="M166.16 114a2.17 2.17 0 0 1-2.08 2.25h-20.85a2.17 2.17 0 0 1-2.07-2.25 2.17 2.17 0 0 1 2.07-2.26h20.85a2.17 2.17 0 0 1 2.08 2.26z"/>
        <path id="Rectangle_761" fill="#e31e3b" d="M0 0H22.61V1.5H0z" transform="translate(142.26 109.62)"/>
        <path id="Path_2000" fill="#f8e931" d="M164.88 116.27h-22.89v.8h3.56l3.01 1.74 2.02-1.74h14.3z"/>
        <path id="Path_2001" fill="#94b73d" d="M164.88 111H142v.8h10.86a1.5 1.5 0 0 0 0 .37 1.81 1.81 0 0 0 1.94 1.63 2.1 2.1 0 0 0 1.35-.46 3.13 3.13 0 0 0 2.66 1.42 3 3 0 0 0 3.06-2.84v-.12h3.07z"/>
        <path id="Path_2002" d="M148.53 105.93c0 .32-.58.58-1.3.58s-1.29-.26-1.29-.58.58-.58 1.29-.58 1.3.26 1.3.58z" class="cls-17"/>
        <path id="Path_2003" d="M152 104.17c0 .32-.58.58-1.3.58s-1.29-.26-1.29-.58.58-.58 1.29-.58 1.3.26 1.3.58z" class="cls-17"/>
        <path id="Path_2004" d="M155 105.78c0 .32-.58.58-1.3.58s-1.29-.26-1.29-.58.58-.58 1.29-.58 1.3.26 1.3.58z" class="cls-17"/>
        <path id="Path_2005" d="M158.31 104.37c0 .32-.58.58-1.29.58s-1.29-.26-1.29-.58.57-.58 1.29-.58 1.29.26 1.29.58z" class="cls-17"/>
        <path id="Path_2006" d="M160.8 106.36c0 .32-.58.58-1.29.58s-1.29-.26-1.29-.58.58-.58 1.29-.58 1.29.22 1.29.58z" class="cls-17"/>
        <path id="Path_2007" d="M233.47 110.46c-1 12.38-10.07 22.5-22.5 22.5a22.49 22.49 0 0 1-22.5-22.5c0-18.53 10.22-24.41 22.5-22.5 14.75 2.3 23.46 11.04 22.5 22.5z" class="cls-5"/>
        <path id="Path_2008" d="M202.61 101.73c0 1-3.58 2.25 2.06 3.76.52-.63 3.79-4.35 4-4.83.5-1.41-2.29-3.57-3.26-2.39-.73.88.76 1.46.72 1.85a.65.65 0 0 1-.68.52c-.52 0-.85-.64-1.35-.76-.87-.2-1.59.2-1.49 1.85z" class="cls-18"/>
        <path id="Path_2009" fill="#8da53c" d="M203.41 107.33a3.19 3.19 0 0 1-4.42-4.42z"/>
        <path id="Path_2010" d="M202.91 106.83a2.5 2.5 0 0 1-3.41-3.42z" class="cls-20"/>
        <path id="Path_2011" fill="#cb2327" d="M204.85 101.63c-4.74-2.85-6.16 4.6-1.84 5.94s7.36-5.57 1.84-5.94z"/>
        <path id="Path_2012" d="M204.6 102.42c-3.44-2.07-4.47 3.35-1.34 4.32s5.35-4.08 1.34-4.32z" class="cls-22"/>
        <path id="Path_2013" d="M203.35 106.47c-.16 0-.2-.34-.11-.64s.3-.52.45-.47.2.33.11.64-.3.52-.45.47z" class="cls-23"/>
        <path id="Path_2014" d="M203.57 102.94c-.09.14-.38.1-.65-.07s-.41-.44-.32-.57.38-.1.65.08.41.43.32.56z" class="cls-23"/>
        <path id="Path_2015" d="M203.09 104c-.05.15-.34.19-.64.09s-.51-.31-.46-.46.34-.2.64-.09.51.28.46.46z" class="cls-23"/>
        <path id="Path_2016" d="M203.13 104.85c.05.15-.17.35-.48.44s-.59 0-.64-.12.17-.35.48-.44.6-.04.64.12z" class="cls-23"/>
        <path id="Path_2017" d="M205.15 103.45c0 .16.26.29.58.3s.58-.12.59-.28-.26-.3-.58-.3-.58.12-.59.28z" class="cls-23"/>
        <path id="Path_2018" d="M205 104.57c-.05.15.17.35.48.44s.59 0 .64-.13-.17-.35-.48-.44-.64-.03-.64.13z" class="cls-23"/>
        <path id="Path_2019" d="M204.44 105.27c-.12.1-.06.38.14.63s.47.37.6.27.06-.39-.14-.64-.47-.36-.6-.26z" class="cls-23"/>
        <path id="Path_2020" d="M205.83 107l-1.78 3.15-3.33-6.15a6.73 6.73 0 0 1 5.11 3z" class="cls-24"/>
        <path id="Path_2021" d="M201.86 110l4.38-5.28c-1.63-1.62-3.5.06-3.53.11-.48.6-1.32 0-1.86-.17a.75.75 0 0 0-.91.27c-.35.43-.17.8-.14 1.31 0 .86-1.5 1.19-1.05 2.13s2.18 1.37 3.11 1.63z" class="cls-18"/>
        <path id="Path_2022" d="M205 111.14c.76-1.07 4.18-5.79 4.2-6 .07-.39-.93-1.94-2.61-.76-.51.36-.86.66-1.39.27s-1.22-1.51-2.19-.94c-.75.44-.27.83-.21 1.39s-.39.64-.84.48c-3.69-1.28-.74 4.56 3.04 5.56z" class="cls-20"/>
        <path id="Rectangle_762" d="M0 0H1.69V1.75H0z" class="cls-22" transform="rotate(-45 223.934 -196.08)"/>
        <path id="Path_2023" d="M207.67 110.4c3.55-1 2.67-9.37-2.5-11.05z" class="cls-24"/>
        <path id="Path_2024" d="M223 115.7l-2.95 3a1.51 1.51 0 0 1-2.14 0L207.28 108c-4-4 1.56-8.62 1.56-8.62L223 113.57a1.5 1.5 0 0 1 0 2.13z" class="cls-25"/>
        <path id="Path_2025" d="M209.73 107.74a.8.8 0 0 1-1.13-1.13l2-2a.8.8 0 0 1 1.13 1.13z" class="cls-26"/>
        <path id="Path_2026" d="M212.78 110.79a.792.792 0 0 1-1.12-1.12l2-2a.792.792 0 1 1 1.12 1.12z" class="cls-26"/>
        <path id="Path_2027" d="M215.84 113.85a.8.8 0 0 1-1.13-1.13l2-2a.8.8 0 0 1 1.13 1.13z" class="cls-26"/>
        <path id="Path_2028" d="M218.89 116.9a.8.8 0 0 1-1.13-1.13l2-2a.8.8 0 0 1 1.13 1.13z" class="cls-26"/>
        <path id="Path_2029" d="M220.08 118.65l-3.9 3.9a1.51 1.51 0 0 1-2.14 0l-14.19-14.19.31-.31c4-3.72 6.41-.77 7.34.16l10.44 10.44a1.51 1.51 0 0 0 2.14 0z" class="cls-25"/>
        <path id="Path_2030" fill="url(#linear-gradient)" d="M71.61 35.66H59.42l-3.91-2.21.94 2.21H33.52a13.93 13.93 0 1 0 0 27.85h38.09a13.93 13.93 0 1 0 0-27.85z"/>
        <rect id="Rectangle_763" width="1.75" height="11.19" class="cls-28" rx=".875" transform="translate(30.98 43.56)"/>
        <rect id="Rectangle_764" width="1.75" height="11.19" class="cls-28" rx=".875" transform="translate(72.39 43.56)"/>
        <rect id="Rectangle_765" width="1.75" height="16.25" class="cls-28" rx=".875" transform="translate(36.16 41.03)"/>
        <rect id="Rectangle_766" width="1.75" height="16.25" class="cls-28" rx=".875" transform="translate(67.22 41.03)"/>
        <rect id="Rectangle_767" width="1.75" height="19.57" class="cls-28" rx=".875" transform="translate(41.33 39.37)"/>
        <rect id="Rectangle_768" width="1.75" height="19.57" class="cls-28" rx=".875" transform="translate(62.04 39.37)"/>
        <rect id="Rectangle_769" width="1.75" height="16.55" class="cls-28" rx=".875" transform="translate(46.51 40.88)"/>
        <rect id="Rectangle_770" width="1.75" height="16.55" class="cls-28" rx=".875" transform="translate(56.86 40.88)"/>
        <rect id="Rectangle_771" width="1.75" height="11.7" class="cls-28" rx=".875" transform="translate(51.69 43.3)"/>
        <path id="Path_2031" fill="url(#linear-gradient-2)" d="M111.54 35H116l4.81-3.84-.36 3.84h18a13 13 0 1 1 0 26h-26.91a13 13 0 1 1 0-26z"/>
        <rect id="Rectangle_772" width="1.48" height="9.26" class="cls-28" rx=".74" transform="translate(139.02 43.22)"/>
        <rect id="Rectangle_773" width="1.48" height="11.93" class="cls-28" rx=".74" transform="translate(134.8 41.88)"/>
        <rect id="Rectangle_774" width="1.48" height="9.46" class="cls-28" rx=".74" transform="translate(130.58 43.11)"/>
        <rect id="Rectangle_775" width="1.48" height="13.74" class="cls-28" rx=".74" transform="translate(126.37 40.97)"/>
        <rect id="Rectangle_776" width="1.48" height="16.55" class="cls-28" rx=".74" transform="translate(122.15 39.57)"/>
        <rect id="Rectangle_777" width="1.48" height="14" class="cls-28" rx=".74" transform="translate(117.93 40.84)"/>
        <rect id="Rectangle_778" width="1.48" height="9.9" class="cls-28" rx=".74" transform="translate(113.72 42.9)"/>
        <rect id="Rectangle_779" width="1.48" height="6.87" class="cls-28" rx=".74" transform="translate(109.5 44.41)"/>
        <path id="Path_2032" fill="url(#linear-gradient-3)" d="M223.41 37.1l-2.65-1.18a14 14 0 0 0-4.27-.67H204.8v-2.57l-3.44 2.57h-23a13.92 13.92 0 0 0 0 27.84h38.11a13.91 13.91 0 0 0 6.92-26z"/>
        <rect id="Rectangle_780" width="1.73" height="13.88" class="cls-28" rx=".86" transform="translate(181.85 42.21)"/>
        <rect id="Rectangle_781" width="1.73" height="11.01" class="cls-28" rx=".86" transform="translate(186.76 43.65)"/>
        <rect id="Rectangle_782" width="1.73" height="16" class="cls-28" rx=".86" transform="translate(191.66 41.15)"/>
        <rect id="Rectangle_783" width="1.73" height="19.27" class="cls-28" rx=".86" transform="translate(196.57 39.52)"/>
        <rect id="Rectangle_784" width="1.73" height="16.3" class="cls-28" rx=".86" transform="translate(201.48 41.01)"/>
        <rect id="Rectangle_785" width="1.73" height="11.52" class="cls-28" rx=".86" transform="translate(206.39 43.39)"/>
        <rect id="Rectangle_786" width="1.73" height="8" class="cls-28" rx=".86" transform="translate(211.3 45.15)"/>
        <rect id="Rectangle_787" width="5.26" height="1.75" class="cls-2" rx=".875" transform="rotate(-45 142.656 -25.323)"/>
        <rect id="Rectangle_788" width="5.26" height="1.75" class="cls-2" rx=".875" transform="rotate(-45 138.69 -34.89)"/>
        <rect id="Rectangle_789" width="5.26" height="1.75" class="cls-2" rx=".875" transform="rotate(-45 134.73 -44.45)"/>
        <rect id="Rectangle_790" width="5.26" height="1.75" class="cls-2" rx=".875" transform="rotate(-45 130.77 -54.009)"/>
        <rect id="Rectangle_791" width="5.26" height="1.75" class="cls-2" rx=".875" transform="rotate(-45 126.81 -63.569)"/>
        <rect id="Rectangle_792" width="5.26" height="1.75" class="cls-2" rx=".875" transform="rotate(-45 122.847 -73.14)"/>
        <rect id="Rectangle_793" width="5.26" height="1.75" class="cls-2" rx=".875" transform="rotate(-45 118.888 -82.7)"/>
        <rect id="Rectangle_794" width="5.26" height="1.75" class="cls-31" rx=".875" transform="rotate(-90 148.695 -62.415)"/>
        <rect id="Rectangle_795" width="5.26" height="1.75" class="cls-31" rx=".875" transform="rotate(-90 144.735 -66.375)"/>
        <rect id="Rectangle_796" width="5.26" height="1.75" class="cls-31" rx=".875" transform="rotate(-90 140.775 -70.335)"/>
        <rect id="Rectangle_797" width="5.26" height="1.75" class="cls-32" rx=".875" transform="rotate(-45 172.521 -97.42)"/>
        <rect id="Rectangle_798" width="5.26" height="1.75" class="cls-32" rx=".875" transform="rotate(-45 168.557 -106.968)"/>
        <rect id="Rectangle_799" width="5.26" height="1.75" class="cls-32" rx=".875" transform="rotate(-45 164.598 -116.528)"/>
        <rect id="Rectangle_800" width="5.26" height="1.75" class="cls-32" rx=".875" transform="rotate(-45 160.644 -126.075)"/>
        <rect id="Rectangle_801" width="5.26" height="1.75" class="cls-32" rx=".875" transform="rotate(-45 156.672 -135.64)"/>
        <rect id="Rectangle_802" width="5.26" height="1.75" class="cls-32" rx=".875" transform="rotate(-45 152.712 -145.2)"/>
        <rect id="Rectangle_803" width="5.26" height="1.75" class="cls-32" rx=".875" transform="rotate(-45 148.766 -154.764)"/>
        <rect id="Rectangle_804" width="5.26" height="1.75" class="cls-32" rx=".875" transform="rotate(-45 144.8 -164.312)"/>
        <rect id="Rectangle_805" width="5.26" height="1.75" class="cls-33" rx=".875" transform="rotate(-135 84.911 20.288)"/>
        <rect id="Rectangle_806" width="5.26" height="1.75" class="cls-33" rx=".875" transform="rotate(-135 80.953 18.642)"/>
        <rect id="Rectangle_807" width="5.26" height="1.75" class="cls-33" rx=".875" transform="rotate(-135 76.996 17.007)"/>
        <rect id="Rectangle_808" width="5.26" height="1.75" class="cls-33" rx=".875" transform="rotate(-135 73.036 15.366)"/>
        <rect id="Rectangle_809" width="5.26" height="1.75" class="cls-33" rx=".875" transform="rotate(-135 69.078 13.731)"/>
        <rect id="Rectangle_810" width="5.26" height="1.75" class="cls-33" rx=".875" transform="rotate(-135 65.118 12.087)"/>
        <rect id="Rectangle_811" width="5.26" height="1.75" class="cls-33" rx=".875" transform="rotate(-135 61.162 10.446)"/>
        <rect id="Rectangle_812" width="5.26" height="1.75" class="cls-33" rx=".875" transform="rotate(-135 57.202 8.806)"/>
        <path id="Path_2033" d="M43.07 33.39a7.4 7.4 0 0 1-1.72 2.17 1.51 1.51 0 0 1-1 .33h-4.61s8.06-3.84 7.33-2.5" class="cls-34"/>
        <path id="Path_2034" d="M39.37 46.73a.5.5 0 0 0-.07.5 3 3 0 0 0 1 1.08l.17.13c.45.39.28.5 1.09 1.3s1.54.92 1.71.84-.16-.58-.5-1.13v-.08l-.11-.19c-.4-.67-.31-1-.23-2 .06-.81 1.17-4.57 1.17-4.57l-1.73-.27s-.46 3-1 3.46c-.3.25-.65.26-.94.44h-.06a2.16 2.16 0 0 0-.46.39" class="cls-35"/>
        <path id="Path_2035" d="M39.37 46.73a.5.5 0 0 0-.07.5 3.82 3.82 0 0 0 1 1.08l.17.13c.45.39.28.5 1.09 1.3s1.54.92 1.71.84-.16-.58-.5-1.13a3.89 3.89 0 0 1-1.63-1.15c-.55-.68-.94-1.56-1.31-2.07h-.06a2.5 2.5 0 0 0-.47.39" class="cls-34"/>
        <path id="Path_2036" d="M53.27 45.38c.13.53.88.43 1.73.2s.65 0 1.85-.13 1.57-.61 1.6-.79-.57-.21-1.21-.27H57a5.25 5.25 0 0 1-1.93-.91 7.14 7.14 0 0 1-1.59-1.81l-1.65.16s.89 1.31 1.24 1.87a2 2 0 0 1 .18 1.13 2.72 2.72 0 0 0 0 .57" class="cls-35"/>
        <path id="Path_2037" d="M46.71 34.91l-1.46 4.19-1.92 5.49a3.21 3.21 0 0 1-1.07-.08 4.6 4.6 0 0 1-1-.5 58.08 58.08 0 0 1 1.43-9.23 5.69 5.69 0 0 1 .86-2c1.58-2 3.21 2.08 3.21 2.08" class="cls-34"/>
        <path id="Path_2038" d="M45 28.32c-1-.31-3.91.17-6.8.79l-.63-1-6.29-.37s-2 4.64-.79 7.53a1 1 0 0 0 1.05.65h5.07c3.12-.06 6.57-2.28 7-2.37.74-.17 1.06 1.3 1.83 2.84s7.08 6.73 7.08 6.73a5.52 5.52 0 0 0 1.34-.16 1.4 1.4 0 0 0 .57-.38S47.32 29 45 28.31" class="cls-36"/>
        <path id="Path_2039" d="M36.55 9.69a2.25 2.25 0 0 0-1.22-.29 3 3 0 0 1-.6 0c-2.38-.26-3.75 3.22-3.81 4.26-.12 1.93-1.14 2.24-2.55 3.51-2.84 2.5-1.93 5.28-.34 6.3a3.458 3.458 0 0 0 2.61-.05l6.73-3.91c3.35-.54.54-9-.82-9.78" class="cls-34"/>
        <path id="Path_2040" d="M35.47 18.46a3 3 0 0 1-1.84.1 3.32 3.32 0 0 1-1.24-1.42c.32 0 .66-.31.89-2.14l.14.05 2.29.77s-.15.73-.25 1.43-.11 1.15 0 1.23" class="cls-35"/>
        <path id="Path_2041" fill="#ef985e" d="M35.71 15.81s-.15.73-.25 1.43a2.8 2.8 0 0 1-2-2.21z"/>
        <path id="Path_2042" d="M36.06 16.52s-3.12-.35-2.87-2.29 0-3.29 2-3.15 2.29.94 2.37 1.6-.71 3.88-1.51 3.84" class="cls-35"/>
        <path id="Path_2043" d="M37.45 11.62s-2 1.76-3.31 1.92a2.66 2.66 0 0 1-1.88-.26 5.21 5.21 0 0 0 1.24-1.76 1 1 0 0 1 .78-.57c1-.11 2.8-.18 3.17.67" class="cls-34"/>
        <path id="Path_2044" d="M38.19 23c0 6.3.07 5-.61 5.6a2.54 2.54 0 0 1-1.24.29c-1.93.17-5.33-.08-5.47-.43-.47-1.23-.16-1.62-.57-3.51a3.143 3.143 0 0 0-.16-.66c-.33-1.29-.64-1.73.41-3.83A16.62 16.62 0 0 1 32.62 17c2.66 1.51 2.84.2 2.84.2s2.71 2.68 2.73 5.75" class="cls-38"/>
        <path id="Path_2045" d="M45.25 39.1l-1.92 5.49a3.21 3.21 0 0 1-1.07-.08 4.6 4.6 0 0 1-1-.5 58.08 58.08 0 0 1 1.43-9.23z" class="cls-36"/>
        <path id="Path_2046" d="M35.46 17.24s2.7.4 3.06 1.56l2.35 8s-1.37.27-2-.35-2.33-5.86-2.33-5.86z" class="cls-38"/>
        <path id="Path_2047" d="M34.1 27.7a8.24 8.24 0 0 1 2.21-.3 4.59 4.59 0 0 1 1.17 1c.1.21-.69-.15-.94-.21a2.18 2.18 0 0 0-.8.19 2.67 2.67 0 0 1-1.45.17z" class="cls-35"/>
        <path id="Path_2048" d="M32.64 17s-2.56.21-3.42 1.47c-1.21 1.76-3.54 9.22-2.1 10.18 1.62 1.08 7.27.15 7.27.15a2.26 2.26 0 0 0-.1-1.31c-.27-.42-4.55-1-4.75-1.22s2.38-3.89 2.37-4.48.73-4.79.73-4.79" class="cls-38"/>
        <path id="Path_2049" d="M36.41 27.93a4.18 4.18 0 0 0 .54.57.43.43 0 0 0 .22 0l-.28-.5z" class="cls-35"/>
        <path id="Path_2050" d="M36.31 27.4l1.17.54a.2.2 0 0 1-.19.08 2.83 2.83 0 0 1-.5-.13z" class="cls-35"/>
        <path id="Path_2051" fill="#f4974a" d="M36.97 29.28l9.18-.18 2.63-6.92-9.17.18z"/>
        <path id="Path_2052" fill="#ee7d2c" d="M46.26 28.83l-12.13.24.01.27 12.01-.24z"/>
        <path id="Path_2053" d="M43.77 25.71a.33.33 0 0 0-.18-.41.33.33 0 0 0-.14 0 .64.64 0 0 0-.56.45.32.32 0 0 0 .19.41.28.28 0 0 0 .13 0 .64.64 0 0 0 .56-.45" class="cls-28"/>
        <path id="Path_2054" d="M53.27 44.51s2.5.81 4-.12c0 0 1.26 0 1.26.22s-.29.62-1 .8a16.16 16.16 0 0 1-4.15.35c-.38-.19-.11-1.25-.11-1.25z" class="cls-34"/>
        <path id="Path_2055" d="M212.76 32.67a2.21 2.21 0 0 0-3-1.31c-1.57.64-2 2.23-1.5 3.85s3.76 11.16 3.87 12.47h2.6s-.46-7.55-.59-9.38a17.75 17.75 0 0 0-1.39-5.65" class="cls-41"/>
        <path id="Path_2056" fill="#132b43" d="M215.91 17.27c-.14 0-.53.13-1.08 1.18a38.422 38.422 0 0 0-1.76 5.4l3.11 1.15.4-.85.66-6.5s-1.29-.38-1.33-.38"/>
        <path id="Path_2057" d="M220 16.68a19 19 0 0 0-4.1.59s-.75 6.42.67 11.3c.32 1.09-.26 4.53-.26 4.53l9.21-.12s-1.09-8.31-.68-9.65a37.471 37.471 0 0 0 .42-6L223.2 17a21.23 21.23 0 0 0-3.19-.27" class="cls-43"/>
        <path id="Path_2058" d="M221.09 45a12.749 12.749 0 0 1-.58 3 2.86 2.86 0 0 0 0 1.91c0 .15.79.37 2 .24s1.2-.42 1.1-.87-.74-1-.78-1.47a11.078 11.078 0 0 1 .37-2z" class="cls-44"/>
        <path id="Path_2059" fill="#32806c" d="M217.36 31.16s-6.36-.35-7.78.51.26 2.61.26 2.61A44.12 44.12 0 0 0 223.68 37c2 .11 2.22-5.34 1.86-5.79s-8.17-.08-8.17-.08"/>
        <path id="Path_2060" d="M222 35.7c-.26 1.91-1.51 11.45-1.51 11.45l2.92.36s3.59-12.45 3.4-14.35-1.53-2.07-1.53-2.07-2.61-.46-3.28 4.61" class="cls-41"/>
        <path id="Path_2061" d="M219.22 8.58a1.032 1.032 0 0 1 1.75.22.76.76 0 0 1 1 .26s1.09-.32 1.35 1.3c0 0 .56-.11.64.56a1.64 1.64 0 0 1-.27 1.1.79.79 0 0 1 .17.85.75.75 0 0 1-.55.6s-.11.87-.49 1.13a1.23 1.23 0 0 1-.9.14.6.6 0 0 1-.58.44c-.44 0-1-.47-1.49-.28a5.32 5.32 0 0 1-1.78 0 1.78 1.78 0 0 1-1-2.12 1.05 1.05 0 0 1-.1-1.5 1.93 1.93 0 0 1 .46-2 2.55 2.55 0 0 1 1.76-.64" class="cls-43"/>
        <path id="Path_2062" d="M219.39 15.52l-.18 1.3s-.39 1.86.12 2.24 2.14-2.29 2.14-2.29l-.17-3.3z" class="cls-44"/>
        <path id="Path_2063" d="M221.36 14.54a3.74 3.74 0 0 1-2.12 2.08l.15-1.1 1.91-2z" class="cls-46"/>
        <path id="Path_2064" d="M220.13 10a1.74 1.74 0 0 0-2.2 1.1 1.09 1.09 0 0 0-.07.3 13.285 13.285 0 0 0-.15 1.67c0 1.52.77 3 1.45 3a3.27 3.27 0 0 0 2.67-3.14 2.88 2.88 0 0 0-1.7-2.92" class="cls-44"/>
        <path id="Path_2065" d="M221.31 13.11a.52.52 0 0 0 .6.4.51.51 0 0 0 .39-.6.5.5 0 0 0-.5-.41.56.56 0 0 0-.49.61" class="cls-44"/>
        <path id="Path_2066" d="M217.13 9.24c-.72.57-1 1.43-.56 1.92a1.48 1.48 0 0 0 2-.13c.71-.56 1-1.42.56-1.91a1.5 1.5 0 0 0-2 .12" class="cls-43"/>
        <path id="Path_2067" d="M225.37 18c-.86-.32-1.28 7.41-1.39 10.6a39.23 39.23 0 0 1-4.85-.05c-.31 0-1-.29-1.34-.32a2.77 2.77 0 0 0-.76 0 12.909 12.909 0 0 0-1.78.8c-.17.17-.62.62-.55.81s.88-.53.88-.53l.39-.22c-.49.46-1.4 1.1-1.28 1.32s1-.41 1.56-.84c-.51.46-1.15 1.28-1 1.39s.85-.84 1.63-1.11c.28-.1.57.18.8.21a1.63 1.63 0 0 0 .58 0l.84-.24c.28 0 .29.19.57.26s.89.14 1.32.24a22.5 22.5 0 0 0 4 .88c2.28 0 2.41-12.45.37-13.22" class="cls-44"/>
        <path id="Path_2068" d="M227 25.28c.16-3.25.14-7.28-1.69-8-.73-.27-2 1.36-1.77 8a13.82 13.82 0 0 0 3.46-.07" class="cls-43"/>
        <path id="Path_2069" d="M212.56 47.05a1.58 1.58 0 0 1-.21 1.35c-.46.54-2.35 1.07-2.6 1.36a.8.8 0 0 0-.22.54l5.31-.15-.06-1.6-.24-1.15z" class="cls-44"/>
        <path id="Path_2070" d="M212 48.65s1.37.54 2 .22.64-.42.83-.29.26 1.62.26 1.62l-6 .17c-.41 0-.62-.31-.29-.58a5.381 5.381 0 0 1 .66-.38 17.89 17.89 0 0 1 2.49-.76" class="cls-47"/>
        <path id="Path_2071" d="M208.54 23.88h8.69a.56.56 0 0 1 .52.35l2.68 6.55h4.8a.24.24 0 0 1 .16.3.22.22 0 0 1-.16.16h-13.65a.92.92 0 0 1-.87-.56l-2.69-6a.56.56 0 0 1 .28-.75.6.6 0 0 1 .24-.05" class="cls-46"/>
        <path id="Path_2072" d="M220.35 48.52a2.78 2.78 0 0 0 1.51.63 2.92 2.92 0 0 0 1.37-.63s1.76 1.72-.81 2-2.24-1.52-2.07-2z" class="cls-47"/>
        <path id="Path_2073" d="M249.1 34.05a.45.45 0 0 0 .59.29.451.451 0 0 0-.23-.87.5.5 0 0 0-.36.61" class="cls-28"/>
        <path id="Path_2074" d="M139.81 50.52a10.312 10.312 0 0 0 .28 1.45c.17.44 1.06 1.47.68 2.45s-2.18 0-2.9-.28-.56-.92-.63-1.65-.43-.74-.3-1.25a5.88 5.88 0 0 1 .92-1.49z" class="cls-48"/>
        <path id="Path_2075" d="M138.19 49.23s-.45.63-.44.65 1.93 1.18 2.08.81A3.14 3.14 0 0 0 140 50z" class="cls-49"/>
        <path id="Path_2076" d="M131.63 51.23a7.111 7.111 0 0 0-1.13 1.32c-.53.79-1.93.84-2 1.93s1.93 1.12 3 .77 1.18-1.42 1.82-1.68 1-.49.9-1a6.41 6.41 0 0 0-.39-1.36c-.21.06-.41.11-.62.15a5.3 5.3 0 0 1-1.58-.13z" class="cls-48"/>
        <path id="Path_2077" d="M138.73 21.78s-.39 2.37-.71 3.93a12.142 12.142 0 0 1-.32 1.29 18.911 18.911 0 0 1-1.76 1.93c-1.6 1.65-3.72 3.72-3.72 3.72l-.82-1.58s1.88-2.2 3.16-3.67c.59-.68 1.05-1.19 1.14-1.29.26-.23.57-2.58 1-4.52a7.67 7.67 0 0 1 1.3-3z" class="cls-50"/>
        <path id="Path_2078" d="M135.94 28.94c-1.6 1.65-3.72 3.73-3.72 3.73l-.82-1.59s1.88-2.2 3.16-3.68a2.65 2.65 0 0 1 1.38 1.54z" class="cls-49"/>
        <path id="Path_2079" d="M131.73 50.5l-.1.73a3.54 3.54 0 0 0 2.16 0v-.64z" class="cls-49"/>
        <path id="Path_2080" d="M146.32 32.34c.06.22-10.9 0-10.9 0s3-2.2 3.23-2.79-.79-4.12-.9-5.27c-.1-.92-.35-5 .25-5.67a10.56 10.56 0 0 1 2.91-1.35l3.32.13a4.53 4.53 0 0 1 1 .29c.39.18 2.63 1 3 2.1S146 24.53 146 24.53v4.14a22 22 0 0 0 .32 3.67z" class="cls-50"/>
        <path id="Path_2081" fill="#2c3f5e" d="M146.32 32.34a9.16 9.16 0 0 1 1.51 3.66c0 1.49-2.66 6.5-3.06 7.21-1.21 2.16-4.54 6.8-4.54 6.8a9.38 9.38 0 0 1-2.37-.71s2.21-6.13 2.49-6.77c1.19-2.7 1.85-4.61 1.45-5.07a13.21 13.21 0 0 0-1.8-1.16c-.32-.25-5.8 1-6.4 1.19-1.49.39-.81 3-.48 4.15a81.11 81.11 0 0 1 1 9 5.08 5.08 0 0 1-2.84.08s-3.5-12.7-3.61-14-.17-3.35 8.45-4.93z"/>
        <path id="Path_2082" d="M141.83 10s-2.89-.65-2.22 3 1.35 3.92 3.09 3.17 1.59-3.08 1.68-4.23-1.62-1.88-2.55-1.94z" class="cls-49"/>
        <path id="Path_2083" d="M141.07 18.19a2.59 2.59 0 0 0 3.31.13 19.279 19.279 0 0 1-.22-4.35c.24-1.4-2.64 2.22-2.64 2.22a1 1 0 0 1 .07.35 5.631 5.631 0 0 1 0 .58c-.09.45-.24.96-.52 1.07z" class="cls-49"/>
        <path id="Path_2084" fill="#3a4047" d="M144.24 13.81s-.07-1.15-.48-1.19-.48.43-.48.43l-.43.08s.13-1-.28-1.18-2.71.54-3 .25-.17-2.33.43-2.61 2.29-.9 3.51-.07c0 0 1-.11 1.1.66a10.33 10.33 0 0 1-.37 3.63z"/>
        <path id="Path_2085" d="M145.23 17.7s-1.53 3-4 2.84-.42-3.25-.31-3.28a6.34 6.34 0 0 1 4.31.44z" class="cls-49"/>
        <path id="Path_2086" d="M134.17 32.19s7.57.93 12.15.15l-8.76-1.09s-.05.23-3.39.94z" class="cls-50"/>
        <path id="Path_2087" d="M139.83 30.91l-.57.28a2.69 2.69 0 0 0 .44 1.19l.63-.17s-.13-1.01-.5-1.3z" class="cls-49"/>
        <path id="Path_2088" d="M148.58 29.08a29.312 29.312 0 0 1-3.27 1.37c-2.3.89-4.89 1.72-4.89 1.72l-.59-1.26s2.71-1.48 4.54-2.51a16.611 16.611 0 0 0 1.63-1c.3-.28.37-.72.16-1.51s-.72-4.39-.78-4.83.15-1.55 1.19-1.58a3.06 3.06 0 0 1 1.58.24s.27.11.46 2.66.24 6.38-.03 6.7z" class="cls-50"/>
        <path id="Path_2089" d="M146 25v1.47a7.35 7.35 0 0 1-.42-4.56A14.329 14.329 0 0 0 146 25z" class="cls-53"/>
        <path id="Path_2090" d="M138 25.71a12.139 12.139 0 0 1-.3 1.29 13.559 13.559 0 0 1 0-3.87 22.24 22.24 0 0 0 .3 2.58z" class="cls-53"/>
        <path id="Path_2091" d="M145.33 30.45c-2.29.89-5 1.75-5 1.75l-.49-1.29s2.72-1.48 4.55-2.51c-.01-.01.61.33.94 2.05z" class="cls-49"/>
        <path id="Path_2092" fill="#454f98" d="M139.67 32.27l-10.76-.15 5.43 2.75z"/>
        <path id="Path_2093" d="M134.34 34.87l5.33-2.06v-.54l-5.75 2.07z" class="cls-55"/>
        <path id="Path_2094" d="M139.39 31.2s-.67-.1-1.14-.21a2.31 2.31 0 0 0-1.48.26c-.23.23-1 1.84-1.09 1.93s.07.33.32.22c0 0 .22.7.76.44s.92-.84 1.18-.94 1.94-.61 1.94-.61-.07-1.29-.49-1.09z" class="cls-49"/>
        <path id="Path_2095" d="M136.94 31.15a4.29 4.29 0 0 0-.55.31l-.68.51c-.11.09.17.31 1 0s.23-.82.23-.82z" class="cls-49"/>
        <path id="Path_2096" d="M134.34 34.87l-3.2-8.74-10.31.17 3.05 8.06z" class="cls-55"/>
        <path id="Path_2097" fill="#5d80c0" d="M127.84 30a1.13 1.13 0 0 1-.21 1.53c-.44.22-1-.12-1.35-.75a1.092 1.092 0 0 1 .22-1.53c.44-.22 1.03.11 1.34.75z"/>
        <path id="Path_2098" d="M143.27 12.58a.37.37 0 0 1 .46-.24.36.36 0 0 1 .25.28c.05.48-.28 1.33-.52 1.24s-.24-.86-.19-1.28z" class="cls-49"/>
        <ellipse id="Ellipse_101" cx="18.96" cy="2.23" class="cls-57" rx="18.96" ry="2.23" transform="translate(20.52 137.05)"/>
        <ellipse id="Ellipse_102" cx="18.96" cy="2.23" class="cls-57" rx="18.96" ry="2.23" transform="translate(77.52 137.19)"/>
        <ellipse id="Ellipse_103" cx="18.96" cy="2.23" class="cls-57" rx="18.96" ry="2.23" transform="translate(77.52 137.05)"/>
        <ellipse id="Ellipse_104" cx="18.96" cy="2.23" class="cls-57" rx="18.96" ry="2.23" transform="translate(134.78 137.05)"/>
        <ellipse id="Ellipse_105" cx="18.96" cy="2.23" class="cls-57" rx="18.96" ry="2.23" transform="translate(192.45 137.05)"/>
    </g>
</svg>
