<svg xmlns="http://www.w3.org/2000/svg" width="257.309" height="154.385" viewBox="0 0 257.309 154.385">
    <defs>
        <linearGradient id="linear-gradient" x2="1" y1=".5" y2=".5" gradientUnits="objectBoundingBox">
            <stop offset="0" stop-color="#fdc32d"/>
            <stop offset="1" stop-color="#ea5825"/>
        </linearGradient>
        <linearGradient id="linear-gradient-2" x1=".001" x2="1" y1=".5" y2=".5" gradientUnits="objectBoundingBox">
            <stop offset="0" stop-color="#fcc46c"/>
            <stop offset="1" stop-color="#ee7059"/>
        </linearGradient>
        <linearGradient id="linear-gradient-3" x1="-.001" x2=".999" y1=".5" y2=".5" gradientUnits="objectBoundingBox">
            <stop offset="0" stop-color="#ec6424"/>
            <stop offset="1" stop-color="#941914"/>
        </linearGradient>
        <style>
            .cls-6{fill:#fdcb70}.cls-7{fill:#ed6d42}.cls-8{fill:#fff}.cls-9{fill:#c4e1f2}.cls-10{fill:#788ba0}.cls-12{fill:#1a4655}.cls-13{fill:#f6aa78}.cls-14{fill:#1b2c48}.cls-15{fill:#1a375e}.cls-19{fill:#e5b05c}.cls-20{fill:#f7cc7f}.cls-21{fill:#628c62}.cls-22{fill:#f49d8f}.cls-23{fill:#37548b}.cls-24{fill:#f18b80}.cls-26{fill:#383838}.cls-27{fill:#88afdd}.cls-28{fill:#f4a493}.cls-30{fill:#f3f7fd}
        </style>
    </defs>
    <g id="Layer_1">
        <path id="Path_1824" fill="#d0e2f2" d="M257.309 82.864a36.744 36.744 0 0 0-36.744-36.744h-13.833a37.052 37.052 0 0 0 1.173-9.376A36.744 36.744 0 0 0 171.193 0H36.744A36.744 36.744 0 0 0 0 36.744a36.744 36.744 0 0 0 36.744 36.743h18.629a36.589 36.589 0 0 0-1.215 9.376 36.6 36.6 0 0 0 4.786 18.125H26.7A26.7 26.7 0 0 0 0 127.687a26.7 26.7 0 0 0 26.7 26.7h203.9a26.7 26.7 0 0 0 26.709-26.7 26.647 26.647 0 0 0-9.376-20.307 36.579 36.579 0 0 0 9.376-24.516z"/>
        <path id="Path_1825" fill="#adc6e9" d="M159.8 75.438c0 17.013-16.571 26.276-33.584 26.276-22.849 0-33.9-11.322-34.1-28.355s3.52-29.343 29.951-33.265c27.917-4.148 37.733 18.331 37.733 35.344z" transform="translate(2.693 1.158)"/>
        <path id="Path_1826" fill="url(#linear-gradient)" d="M128.875 59.807v-11.97h-4.817a20.009 20.009 0 0 0-1.647-3.993l3.4-3.4-8.46-8.471-3.4 3.4a21.614 21.614 0 0 0-3.993-1.647V28.92H97.977v4.817a20.934 20.934 0 0 0-3.993 1.657l-3.366-3.366-8.532 8.46 3.386 3.386a20.286 20.286 0 0 0-1.626 3.963H79.06v11.97h4.817a20.585 20.585 0 0 0 1.636 3.993l-3.427 3.4 8.471 8.471 3.4-3.4a20.9 20.9 0 0 0 3.993 1.647v4.776h11.98v-4.776a20.9 20.9 0 0 0 4.065-1.688l3.376 3.376 8.46-8.471-3.376-3.376a20.009 20.009 0 0 0 1.647-3.993zm-24.907 7.935a13.926 13.926 0 1 1 13.926-13.915 13.926 13.926 0 0 1-13.926 13.915z" transform="translate(2.311 .845)"/>
        <path id="Path_1827" fill="url(#linear-gradient-2)" d="M137.362 88.6l-3.582-6.011-2.419 1.441a11.538 11.538 0 0 0-2.058-1.523l.7-2.717-6.783-1.72-.69 2.717a11.568 11.568 0 0 0-2.5.371l-1.43-2.419-6.021 3.571 1.431 2.4a11.939 11.939 0 0 0-1.513 2.058l-2.7-.69-1.717 6.782 2.707.69a11.928 11.928 0 0 0 .36 2.47l-2.419 1.441 3.582 6.011 2.408-1.441a12 12 0 0 0 2.058 1.523l-.7 2.717 6.783 1.719.69-2.717a11.568 11.568 0 0 0 2.5-.371l1.42 2.408 6.021-3.582-1.431-2.4a12.432 12.432 0 0 0 1.513-2.058l2.7.69L138 93.179l-2.707-.69a12.125 12.125 0 0 0-.36-2.491zm-11.527 9.1a5.424 5.424 0 1 1 1.894-7.441 5.424 5.424 0 0 1-1.894 7.441z" transform="translate(3.16 2.282)"/>
        <path id="Path_1828" fill="url(#linear-gradient-3)" d="M169.154 62.906l-4.632-7.74-3.088 1.863a14.852 14.852 0 0 0-2.6-1.956l.885-3.52-8.769-2.233-.9 3.52a15.613 15.613 0 0 0-3.221.473l-1.863-3.088-7.8 4.549 1.853 3.088a16.469 16.469 0 0 0-1.956 2.614l-3.489-.885-2.223 8.769 3.5.9a15.519 15.519 0 0 0 .473 3.2l-3.088 1.863 4.632 7.781 3.088-1.863a15.314 15.314 0 0 0 2.614 1.956l-.9 3.52 8.769 2.233.9-3.52a15.809 15.809 0 0 0 3.232-.473l1.842 3.088 7.781-4.632-1.842-3.088a15.943 15.943 0 0 0 1.956-2.6l3.5.885 2.223-8.769-3.489-.9a15.716 15.716 0 0 0-.473-3.222zm-13.524 14.1a9.726 9.726 0 1 1 4.483-5.983 9.737 9.737 0 0 1-4.483 5.983z" transform="translate(3.84 1.442)"/>
        <rect id="Rectangle_689" width="46.82" height="61.198" class="cls-6" rx="3" transform="translate(22.787 18.351)"/>
        <path id="Path_1829" d="M25.228 17.83h40.644a3.088 3.088 0 0 1 3.088 3.088v2.8H22.14v-2.8a3.088 3.088 0 0 1 3.088-3.088z" class="cls-7" transform="translate(.647 .521)"/>
        <rect id="Rectangle_690" width="34.14" height="42.929" class="cls-6" rx="3" transform="translate(185.993 54.673)"/>
        <path id="Path_1830" d="M183.8 53.12h27.964a3.088 3.088 0 0 1 3.088 3.088v2.8H180.71v-2.8a3.088 3.088 0 0 1 3.09-3.088z" class="cls-7" transform="translate(5.283 1.553)"/>
        <rect id="Rectangle_691" width="45.822" height="35.622" class="cls-6" rx="3" transform="translate(42.096 89.019)"/>
        <path id="Path_1831" d="M43.988 86.49h39.646a3.088 3.088 0 0 1 3.088 3.088v2.789H40.9v-2.789a3.088 3.088 0 0 1 3.088-3.088z" class="cls-7" transform="translate(1.196 2.529)"/>
        <rect id="Rectangle_692" width="53.5" height="36.713" class="cls-6" rx="3" transform="translate(160.715 6.422)"/>
        <path id="Path_1832" d="M159.238 6.24h47.345a3.088 3.088 0 0 1 3.088 3.088v2.841H156.15V9.328a3.088 3.088 0 0 1 3.088-3.088z" class="cls-7" transform="translate(4.565 .182)"/>
        <rect id="Rectangle_693" width="31.721" height="2.058" class="cls-8" rx="1" transform="translate(30.321 30.404)"/>
        <rect id="Rectangle_694" width="19.298" height="2.058" class="cls-8" rx="1" transform="translate(30.321 36.26)"/>
        <rect id="Rectangle_695" width="25.34" height="2.058" class="cls-8" rx="1" transform="translate(30.321 42.127)"/>
        <rect id="Rectangle_696" width="25.34" height="2.058" class="cls-8" rx="1" transform="translate(30.321 47.983)"/>
        <rect id="Rectangle_697" width="25.34" height="2.058" class="cls-8" rx="1" transform="translate(164.235 20.821)"/>
        <rect id="Rectangle_698" width="25.34" height="2.058" class="cls-8" rx="1" transform="translate(164.235 25.649)"/>
        <rect id="Rectangle_699" width="25.34" height="2.058" class="cls-8" rx="1" transform="translate(164.235 36.641)"/>
        <rect id="Rectangle_700" width="19.298" height="2.058" class="cls-8" rx="1" transform="translate(30.321 53.85)"/>
        <rect id="Rectangle_701" width="31.721" height="2.058" class="cls-8" rx="1" transform="translate(30.321 59.706)"/>
        <rect id="Rectangle_702" width="15.922" height="2.058" class="cls-8" rx="1" transform="translate(57.987 102.851)"/>
        <rect id="Rectangle_703" width="2.058" height="2.058" class="cls-8" rx="1" transform="translate(52.09 102.851)"/>
        <rect id="Rectangle_704" width="2.058" height="2.058" class="cls-8" rx="1" transform="translate(52.09 108.708)"/>
        <rect id="Rectangle_705" width="2.058" height="2.058" class="cls-8" rx="1" transform="translate(52.09 114.574)"/>
        <rect id="Rectangle_706" width="12.124" height="2.058" class="cls-8" rx="1" transform="translate(57.987 108.708)"/>
        <rect id="Rectangle_707" width="19.926" height="2.058" class="cls-8" rx="1" transform="translate(57.987 114.574)"/>
        <rect id="Rectangle_708" width="31.721" height="2.058" class="cls-8" rx="1" transform="translate(30.321 65.573)"/>
        <rect id="Rectangle_709" width="31.721" height="2.058" class="cls-8" rx="1" transform="translate(30.321 71.429)"/>
        <rect id="Rectangle_710" width="15.511" height="14.121" class="cls-9" rx="1" transform="translate(189.091 63.71)"/>
        <rect id="Rectangle_711" width="9.098" height="3.376" class="cls-9" rx="1" transform="translate(164.235 14.862)"/>
        <rect id="Rectangle_712" width="14.656" height="20.08" class="cls-9" rx="1" transform="translate(195.184 16.643)"/>
        <rect id="Rectangle_713" width="9.098" height="3.376" class="cls-9" rx="1" transform="translate(164.235 30.733)"/>
        <rect id="Rectangle_714" width="22.448" height="14.121" class="cls-9" rx="1" transform="translate(194.597 79.817)"/>
        <rect id="Rectangle_715" width="3.088" height="1.029" class="cls-10" rx=".5" transform="rotate(45 4.643 100.384)"/>
        <rect id="Rectangle_716" width="3.088" height="1.029" class="cls-10" rx=".5" transform="rotate(45 2.326 105.943)"/>
        <rect id="Rectangle_717" width="3.088" height="1.029" class="cls-10" rx=".5" transform="rotate(45 .033 111.507)"/>
        <rect id="Rectangle_718" width="3.088" height="1.029" class="cls-10" rx=".5" transform="rotate(45 -2.271 117.06)"/>
        <rect id="Rectangle_719" width="3.088" height="1.029" class="cls-10" rx=".5" transform="rotate(-45 167.76 -57.512)"/>
        <rect id="Rectangle_720" width="3.088" height="1.029" class="cls-10" rx=".5" transform="rotate(-45 165.444 -63.07)"/>
        <rect id="Rectangle_721" width="3.088" height="1.029" class="cls-10" rx=".5" transform="rotate(-45 163.152 -68.635)"/>
        <rect id="Rectangle_722" width="3.088" height="1.029" class="cls-10" rx=".5" transform="rotate(-45 124.14 -155.407)"/>
        <rect id="Rectangle_723" width="3.088" height="1.029" class="cls-10" rx=".5" transform="rotate(-45 121.828 -160.979)"/>
        <rect id="Rectangle_724" width="3.088" height="1.029" class="cls-10" rx=".5" transform="rotate(-45 119.53 -166.53)"/>
        <rect id="Rectangle_725" width="3.088" height="1.029" class="cls-10" rx=".5" transform="rotate(-45 117.22 -172.102)"/>
        <rect id="Rectangle_726" width="3.088" height="1.029" class="cls-10" rx=".5" transform="translate(170.657 81.402)"/>
        <rect id="Rectangle_727" width="3.088" height="1.029" class="cls-10" rx=".5" transform="translate(175.268 81.402)"/>
        <rect id="Rectangle_728" width="3.088" height="1.029" class="cls-10" rx=".5" transform="translate(179.869 81.402)"/>
        <path id="Path_1833" fill="#f4f4f4" d="M224.613 142.96c-13.308 4.21-46.573 4.323-99.784 4.2-55.116-.124-94.587-.7-92.847-4.59 2.058-4.611 11.517-3.623 92.847-3.818 57.596-.146 110.89.688 99.784 4.208z" transform="translate(.933 4.056)"/>
        <path id="Path_1834" d="M146.328 144.035a.381.381 0 0 0 .391-.35l1.881-11.815 2.707-16.993.751-4.755-1.925-.062-.329 2.748-2.354 19.392-1.389 11.5a.278.278 0 0 0 .247.329z" class="cls-12" transform="translate(4.27 3.218)"/>
        <path id="Path_1835" d="M204.853 144.035a.381.381 0 0 1-.391-.35l-1.884-11.816-2.707-16.993-.751-4.755 1.925-.062.329 2.748 2.357 19.391 1.379 11.5a.278.278 0 0 1-.226.329z" class="cls-12" transform="translate(5.821 3.218)"/>
        <path id="Path_1836" d="M210.668 111.847h-63.905a1.523 1.523 0 0 1-1.523-1.523 1.523 1.523 0 0 1 1.523-1.523h63.905a1.513 1.513 0 0 1 1.513 1.523 1.513 1.513 0 0 1-1.513 1.523z" class="cls-12" transform="translate(4.246 3.181)"/>
        <path id="Path_1837" d="M157.136 107.159s-2.985-.7-3.757 0a3.767 3.767 0 0 0-1.029 1.709h4.786z" class="cls-13" transform="translate(4.454 3.124)"/>
        <path id="Path_1838" d="M175.645 139.6s-.2 3.705-.782 3.757h-6.773a1.678 1.678 0 0 1 1.287-1.235 4.961 4.961 0 0 0 3.51-2.635c.699-1.644 2.758.113 2.758.113z" class="cls-14" transform="translate(4.914 4.057)"/>
        <path id="Path_1839" d="M169.443 139.388s-.2 3.952-.782 4h-6.731a1.544 1.544 0 0 1 1.225-1.245 4.95 4.95 0 0 0 3.51-2.635c.689-1.663 2.778-.12 2.778-.12z" class="cls-15" transform="translate(4.734 4.056)"/>
        <path id="Path_1840" fill="#0f3757" d="M192.591 115.87c.165.134 2.058 5.764-.35 8.831h-9.016s-4.611.834-4.714 1.832a132.37 132.37 0 0 1-2.748 13.854h-3.314s-1.214-18.238-.329-19.473 11.939-4.271 14.883-4.621 5.588-.423 5.588-.423z" transform="translate(5.022 3.387)"/>
        <path id="Path_1841" fill="#37568c" d="M189.634 115.87a25.731 25.731 0 0 1 1.914 8.831h-14.326s-5.7-.391-5.8.6a71.923 71.923 0 0 1-1.811 15.089h-3.18s-3.088-15.439-.638-19.473c.793-1.266 12.258-4.271 15.2-4.632s8.641-.415 8.641-.415z" transform="translate(4.819 3.387)"/>
        <path id="Path_1842" d="M183.439 95.457l-2.151 1.41-3.088-.587c0-.247.247-1.287.432-2.223a.422.422 0 0 1 0-.165l.3-1.492 2.9-1.287 1.029-.473s-.082.885-.093 1.029a7.411 7.411 0 0 0 .669 3.788z" class="cls-13" transform="translate(5.21 2.65)"/>
        <path id="Path_1843" d="M177.857 92.4s4.673 1.441 5.537-1.441 2.058-4.724-.906-5.764-3.839-.113-4.374.782-1.451 5.968-.257 6.423z" class="cls-13" transform="translate(5.183 2.477)"/>
        <path id="Path_1844" fill="#421b19" d="M178.272 85.734s.3 3.4 1.029 3.252 1.338-.257 1.235.782-1.081 2.213 1.091 2.4 5.28-5.4 4.693-6.464c-1.738-3.089-10.528-3.737-8.048.03z" transform="translate(5.199 2.431)"/>
        <path id="Path_1845" d="M178.965 94.671c.062 0 3.479-1.575 3.88-1.441s.906 1.348.906 1.348l-6.021 1.369a2.9 2.9 0 0 1 1.235-1.276z" class="cls-19" transform="translate(5.196 2.725)"/>
        <path id="Path_1846" d="M173.77 99.13s.216 2.553.545 7.524v.844a84.223 84.223 0 0 0 1.091 10.9 5.342 5.342 0 0 0 1.348 3.088c1.863 1.3 14.934 1.441 16.324-.5s-3.2-22.88-3.716-24.125-5.5-2.3-5.5-2.3l-6.021 1.359c-2.177.48-4.071 3.21-4.071 3.21z" class="cls-20" transform="translate(5.08 2.764)"/>
        <path id="Path_1847" d="M192.726 129.741h-19.38a2.645 2.645 0 0 1-2.645-2.666 2.645 2.645 0 0 1 2.645-2.645h19.38a2.645 2.645 0 0 1 2.645 2.635 2.645 2.645 0 0 1-2.645 2.676z" class="cls-21" transform="translate(4.99 3.638)"/>
        <path id="Rectangle_729" d="M0 0H1.595V13.359H0z" class="cls-15" transform="translate(188.072 133.379)"/>
        <path id="Path_1848" d="M178.336 95.88a7.688 7.688 0 0 0-5.321 3.541c-1.173 1.966-4.57 6.433-6.8 6.567s-9.2 1.492-9.2 1.492v1.729l10.663.288a1.256 1.256 0 0 0 .391 0c1.142-.216 6.927-1.369 7.8-2.748s2.467-10.869 2.467-10.869z" class="cls-20" transform="translate(4.59 2.803)"/>
        <path id="Rectangle_730" d="M0 0H14.337V0.7H0z" class="cls-15" transform="translate(182.082 146.553)"/>
        <path id="Path_1849" d="M176.87 125.363l3.891-25.844s.257-1.492.906-3.932c.484-1.7 3.541-2.357 7.431-2.357 8.419 0 9.829 1.564 9.7 4.22s-3.6 29.292-3.6 29.292z" class="cls-21" transform="translate(5.171 2.726)"/>
        <path id="Path_1850" d="M174.35 107.211a84.217 84.217 0 0 0 1.091 10.9c1.029-.082.628-1.3.391-2.326a32.255 32.255 0 0 1 1.112-8.574c.618-1.606.391-2.058 0-1.626a26.05 26.05 0 0 1-2.594 1.626z" class="cls-19" transform="translate(5.097 3.082)"/>
        <path id="Rectangle_731" d="M0 0H6.289V0.978H0z" class="cls-14" transform="translate(185.725 133.379)"/>
        <path id="Path_1851" d="M177.512 90.08a3.273 3.273 0 0 1 1.235.391c-.093.618-1.256.443-1.256.443a1.544 1.544 0 0 1 .021-.834z" class="cls-8" transform="translate(5.188 2.633)"/>
        <path id="Path_1852" d="M74.221 80.106s-3.654-6.536-4.539-7.925-3.2-6.906-3.273-7.091 1.585-2.83 1.215-2.923-.793 1.389-1.184 1.2-.854-1.245-1.122-1.266-.545-.329-1.112-.062c-.185.093-.34.515-.535.731a2.058 2.058 0 0 0-.124 2.233c.381.69.957.473 1.3.782.947.875.659 5.877 2.058 8.234l4.323 7.308z" class="cls-22" transform="translate(1.85 1.811)"/>
        <path id="Path_1853" d="M73 77.53s4.045 4.343 4.632 6.1-.575 4.264-2.232 4.37-5.28-7.719-5.28-7.719z" class="cls-23" transform="translate(2.05 2.267)"/>
        <path id="Path_1854" d="M91.637 108.589c-.288-.247-.648-.134-1.667-.6a5 5 0 0 0-.947-.278.165.165 0 0 1-.093-.093c-.309-1.122-1.657-6.587-1.811-8.152s-1.184-8.366-1.339-9.403a.113.113 0 0 0-.134-.093l-2.954.834a.1.1 0 0 0-.093.124c.2.813 1.328 5.877 1.667 8.45.257 2.058 3.345 8.6 3.345 9.016a.278.278 0 0 0 .257.226h3.767" class="cls-24" transform="translate(2.415 2.63)"/>
        <path id="Path_1855" fill="#113759" d="M85.1 87.39c-1.575-4.776-3.345-4.56-3.345-4.56l1.359 10.045c.967-.268 2.233-.865 3.211-1.122-.34-1.462-.751-2.913-1.235-4.343" transform="translate(2.39 2.421)"/>
        <path id="Path_1856" d="M84.818 75.314c-.473-3.088-3.345-5.4-6.289-3.87a7.2 7.2 0 0 0-2.058 1.626c-1.245 1.606-1.564 3.582-2.851 5.146a11.765 11.765 0 0 0 1.729 1.112l.813-1.122-.278 1.338a19.556 19.556 0 0 0 8.666 1.75 16.467 16.467 0 0 0 .268-5.98" class="cls-26" transform="translate(2.152 2.074)"/>
        <path id="Path_1857" d="M85.611 144.13a12.876 12.876 0 0 0-2.233-1.266 2.737 2.737 0 0 1-.566-.35 2.573 2.573 0 0 1-1.338-2.748c.144-1.657 2.542-28.191 3.088-31.073a27.141 27.141 0 0 0-.268-7.472l-1.883-.751-3.561 12.279.278 9.263a25.4 25.4 0 0 0-.926 4.282c-.113 1.6 1.194 14.5 1.194 14.5a5.814 5.814 0 0 1-.072 1.122c-.093.494-.628 1.482-.381 1.945a1.163 1.163 0 0 0 .525.566l6.309.1c.34 0 .113-.216-.165-.412" class="cls-24" transform="translate(2.286 2.937)"/>
        <path id="Path_1858" d="M76.368 100.3a20.585 20.585 0 0 0-2.717 6.042c-.525 2.738.381 11.167-.618 14.739-.556 1.945-2.6 4.94-2.913 7.441s-1.41 9.757-1.41 9.757a6.288 6.288 0 0 1-.762 2.131 7.308 7.308 0 0 0-.823 1.122 3.221 3.221 0 0 0 .113 2.491c.144.309 0 .309.319.412A2.058 2.058 0 0 0 70 143.312a5.712 5.712 0 0 0 .463-2.11 9.705 9.705 0 0 1 .35-2.233l7.009-17.25 5.074-14.842 1.3-7.627z" class="cls-22" transform="translate(1.957 2.902)"/>
        <path id="Path_1859" d="M70.189 141.577a3.088 3.088 0 0 1-3.089-1.287 3.417 3.417 0 0 0-.288 2.5c.257.556 1.029.525 1.564.556a1.5 1.5 0 0 0 1.369-.844 4.982 4.982 0 0 0 .412-.926" class="cls-27" transform="translate(1.95 4.101)"/>
        <path id="Path_1860" d="M82.761 141.324a5.578 5.578 0 0 1-3.592-.134 2.851 2.851 0 0 0-.288 1.513c.154.443.371.546.566.546 1.523 0 5.578.1 6.7.113a.185.185 0 0 0 .185-.2.216.216 0 0 0 0-.113 29.456 29.456 0 0 0-3.592-1.719" class="cls-27" transform="translate(2.306 4.128)"/>
        <path id="Path_1861" d="M77.625 121.778h1.564a26.636 26.636 0 0 0 4.529-.175c.6-6.052.823-11.579 1.029-12.793a24.805 24.805 0 0 0-.473-7.647l-.453-.113.309-1.729-8.152 1.029a20.225 20.225 0 0 0-2.81 6.042c-.545 2.738.391 11.157-.648 14.728 0 0 2.326.371 5.023.556" class="cls-21" transform="translate(2.12 2.904)"/>
        <path id="Path_1862" d="M77.941 82s-2.9-.185-4.045 1.122 2.542 11.229 2.758 12.8-1.122 5.836-1.122 5.836 6.824 1.369 8.769.082c0 0 .206-11.476 0-12.618a33.79 33.79 0 0 0-2.357-6.2c-.432-.453-4.045-.906-4.045-.906" class="cls-23" transform="translate(2.154 2.397)"/>
        <path id="Path_1863" d="M78.789 78.211v.226a21.346 21.346 0 0 1-.967 3.674c-.4.772 1.4 3.232 3.088 2.923.515-.082-.432-2.233-.391-2.491.093-.432.216-1.029.319-1.647l.216-1.029c.175-.937.34-1.709.34-1.709z" class="cls-28" transform="translate(2.273 2.285)"/>
        <path id="Path_1864" fill="#ee765b" d="M78.714 78.438v-.226l2.6-.062-.34 1.709c-.062.329-.134.679-.2 1.029a2.439 2.439 0 0 1-1.245-.628 3.52 3.52 0 0 1-.947-1.4 3.087 3.087 0 0 1 .082-.422" transform="translate(2.298 2.285)"/>
        <path id="Path_1865" d="M80.541 72.47a2.357 2.357 0 0 0-2 .844c-.762 1.029-1.585 4.117.309 5.743s3.8-.216 4.117-2.233.381-4.467-2.388-4.364" class="cls-28" transform="translate(2.271 2.118)"/>
        <path id="Path_1866" d="M83.349 76.71c-.226.443-.6.69-.844.545s-.257-.618 0-1.029.607-.69.854-.545.257.6 0 1.029" class="cls-28" transform="translate(2.407 2.211)"/>
        <path id="Path_1867" d="M80.707 72.141s-1.636 2.944-2.8 3.067S76.58 76.9 76.58 76.9s.422-3.582 1.575-4.271a4.3 4.3 0 0 1 2.553-.484" class="cls-26" transform="translate(2.239 2.108)"/>
        <path id="Path_1868" d="M78.225 75.853c.1.525-.082 1.029-.422 1.029s-.679-.288-.772-.813.1-1.029.422-1.029a.883.883 0 0 1 .772.813" class="cls-28" transform="translate(2.251 2.194)"/>
        <path id="Path_1869" d="M79.05 77.572a3.788 3.788 0 0 1 2.655.443c-.113.607-1.276.391-1.276.391-1.379-.258-1.379-.834-1.379-.834z" class="cls-8" transform="translate(2.311 2.266)"/>
        <path id="Path_1870" d="M94.861 113.358H93.42v-.484h1.441v-1.554h.525v1.554h1.441v.484h-1.441v1.554h-.525z" class="cls-30" transform="translate(2.731 3.254)"/>
        <path id="Path_1871" d="M25.651 91.208H24.2v-.484h1.451V89.17h.515v1.554h1.451v.484h-1.451v1.554h-.515z" class="cls-30" transform="translate(.707 2.607)"/>
        <path id="Path_1872" d="M71.591 49.578H70.15v-.484h1.441V47.53h.525v1.564h1.441v.484h-1.441V51.1h-.525z" class="cls-30" transform="translate(2.051 1.39)"/>
        <path id="Path_1873" d="M145.841 19.768H144.4v-.484h1.441V17.72h.525v1.564h1.441v.484h-1.441v1.554h-.525z" class="cls-30" transform="translate(4.222 .518)"/>
        <path id="Path_1874" d="M43.211 11.138H41.77v-.484h1.441V9.1h.525v1.554h1.441v.484h-1.441V12.7h-.525z" class="cls-30" transform="translate(1.221 .266)"/>
        <path id="Path_1875" d="M174.591 74.728h-1.441v-.484h1.441V72.69h.525v1.554h1.441v.484h-1.441v1.564h-.525z" class="cls-30" transform="translate(5.062 2.125)"/>
        <path id="Path_1876" d="M136.951 123H135.5v-.484h1.451V121h.515v1.564h1.441v.484h-1.441v1.552h-.515z" class="cls-30" transform="translate(3.961 3.537)"/>
        <path id="Path_1877" d="M240.531 133.378h-1.441v-.484h1.441v-1.554h.525v1.554h1.444v.484h-1.441v1.564h-.525z" class="cls-30" transform="translate(6.99 3.84)"/>
        <path id="Path_1878" d="M211.781 102.788h-1.451v-.488h1.451v-1.55h.515v1.55h1.441v.484H212.3v1.554h-.515z" class="cls-30" transform="translate(6.149 2.945)"/>
        <path id="Path_1879" d="M223.462 43.218H222v-.484h1.441V41.18h.515v1.554h1.451v.484h-1.451v1.564h-.515z" class="cls-30" transform="translate(6.49 1.204)"/>
        <path id="Path_1880" d="M56.131 129.888H54.68v-.488h1.451v-1.56h.515v1.56H58.1v.484h-1.454v1.554h-.515z" class="cls-30" transform="translate(1.599 3.737)"/>
    </g>
</svg>
