<svg xmlns="http://www.w3.org/2000/svg" xmlns:xlink="http://www.w3.org/1999/xlink" width="309.206" height="89.08" viewBox="0 0 309.206 89.08">
    <defs>
        <linearGradient id="linear-gradient" x1="-364.394" x2="822.283" y1="455.421" y2="-335.677" gradientUnits="objectBoundingBox">
            <stop offset="0" stop-color="#50ffc5"/>
            <stop offset=".104" stop-color="#43efc5"/>
            <stop offset=".296" stop-color="#31d7c4"/>
            <stop offset=".5" stop-color="#23c6c3"/>
            <stop offset=".722" stop-color="#1cbcc3"/>
            <stop offset="1" stop-color="#19b9c3"/>
        </linearGradient>
        <linearGradient id="linear-gradient-2" x1="-.189" x2="2.551" y1="1.905" y2="-.549" xlink:href="#linear-gradient"/>
        <linearGradient id="linear-gradient-3" x1="-1.251" x2="4.838" y1="6.134" y2="-1.002" xlink:href="#linear-gradient"/>
        <linearGradient id="linear-gradient-4" x1=".223" x2=".656" y1=".736" y2=".134" xlink:href="#linear-gradient"/>
        <linearGradient id="linear-gradient-5" x1=".73" x2=".232" y1=".411" y2="-.445" xlink:href="#linear-gradient"/>
        <linearGradient id="linear-gradient-6" x1="-.75" x2="2.297" y1="5.031" y2="-1.808" xlink:href="#linear-gradient"/>
        <linearGradient id="linear-gradient-7" x1=".196" x2=".67" y1="1.072" y2=".397" xlink:href="#linear-gradient"/>
        <style>
            .cls-2{fill:#fff}
        </style>
    </defs>
    <g id="logo_font_black_background-1024px" transform="translate(-.025 -2.5)">
        <g id="Group_108" transform="translate(.025 2.5)">
            <g id="Group_99">
                <path id="Path_33" fill="url(#linear-gradient)" d="M139.06 118.1a.371.371 0 0 1-.06.09z" transform="translate(-97.47 -83.142)"/>
                <path id="Path_35" fill="url(#linear-gradient-2)" d="M100.08 65.129S98.436 62.2 94.013 62.2c-4.064 0-6.275 3.466-6.6 4l-.06.09L74.47 88.228a1.9 1.9 0 0 0 1.643 2.872h5.05a1.97 1.97 0 0 0 1.644-.926l9.5-16.346a1.169 1.169 0 0 1 .239-.3c1.375-2.211 3.915-6.305 4.423-7.232a2.385 2.385 0 0 1 3.111-1.167z" transform="translate(-52.035 -44.02)"/>
                <path id="Path_36" fill="url(#linear-gradient-3)" d="M138.608 80.291a1.9 1.9 0 0 0 1.673.986h4.961a1.908 1.908 0 0 0 1.673-2.809l-3.855-6.933a2.419 2.419 0 0 0-3.138 1.165c-.478.9-3.048 5.02-4.423 7.232a1.93 1.93 0 0 1 3.109.359z" transform="translate(-95.016 -50.485)"/>
                <path id="Path_37" fill="url(#linear-gradient-4)" d="M129.1 131.545l-7.229-14.045-4.871 8.337 3.8 7.53 1.2 2.152 2.63 4.751a2.419 2.419 0 0 0 3.138-1.165c.478-.9 3.048-5.02 4.423-7.232a1.9 1.9 0 0 1-3.091-.328z" transform="translate(-82.044 -82.551)"/>
                <path id="Path_38" fill="url(#linear-gradient-5)" d="M159.752 132h-3.974l-5.678 9.772a1.17 1.17 0 0 1-.239.3c-1.375 2.211-3.915 6.305-4.423 7.232a2.409 2.409 0 0 1-3.138 1.165s1.644 2.928 6.066 2.928c4.064 0 6.275-3.466 6.6-4l.06-.09 8.457-14.4c1.199-1.981-1.341-2.907-3.731-2.907z" transform="translate(-99.784 -92.663)"/>
                <path id="Path_39" fill="url(#linear-gradient-6)" d="M172.563 106.8h-19.9a1.457 1.457 0 0 0-1.315 2.092l2.3 4.6a1.425 1.425 0 0 0 1.315.807h11.057c2.391 0 4.931.926 3.765 2.869l4.423-7.531a1.893 1.893 0 0 0-1.645-2.837z" transform="translate(-106.021 -75.202)"/>
                <path id="Path_40" fill="url(#linear-gradient-7)" d="M82.7 74.985a31.693 31.693 0 0 1-5.349-7.2c-1.942-3.9-1.733-4.657 0-7.923.329-.635 7.291-12.671 7.291-12.671a11.182 11.182 0 0 0 0-11.038L68.569 8a10.931 10.931 0 0 0-9.443-5.5H26.972A10.931 10.931 0 0 0 17.529 8L1.482 36.157a11.182 11.182 0 0 0 0 11.038l15.539 27.216a12.71 12.71 0 0 0 11.057 6.441h13.387a1.8 1.8 0 0 0 1.584-.907l1.823-3.084a1.877 1.877 0 0 0-1.584-2.843H26.972a4.207 4.207 0 0 1-3.586-2.087L7.847 44.715a6.07 6.07 0 0 1 0-6.048l15.539-27.216a4.143 4.143 0 0 1 3.586-2.087H59.1a4.207 4.207 0 0 1 3.586 2.087L78.759 39.6a4.165 4.165 0 0 1 0 4.173l-1.554 2.817-.03-.03c-.179.3-4.273 7.167-5.8 10.07-3.257 6.169-2.421 9.5-.06 14.213.06.151.149.272.209.423a1.875 1.875 0 0 1-1.644 2.752H63.1a1.83 1.83 0 0 0-1.584.937l-1.793 3.084a1.887 1.887 0 0 0 1.584 2.843h22.8a1.884 1.884 0 0 0 1.285-3.236z" transform="translate(-.025 -2.5)"/>
            </g>
            <g id="Group_107" transform="translate(103.582 27.406)">
                <g id="Group_100" transform="translate(148.007 12.337)">
                    <path id="Path_41" d="M864.124 148.865v-15.33a1.135 1.135 0 0 0-1.136-1.136h-2.211a4.92 4.92 0 0 0-4.3 2.57 16.451 16.451 0 1 0-8.845 30.331 16.331 16.331 0 0 0 8.218-2.211v1.076a1.135 1.135 0 0 0 1.136 1.135h5.976a1.135 1.135 0 0 0 1.136-1.135v-15.3zm-15.36 8.158a8.229 8.229 0 1 1 7.082-7.082 8.247 8.247 0 0 1-7.082 7.082z" class="cls-2" transform="translate(-831.19 -132.4)"/>
                </g>
                <g id="Group_101" transform="translate(32.928 12.367)">
                    <path id="Path_42" d="M462.528 132.5a16.44 16.44 0 0 0-.538 32.871 16.242 16.242 0 0 0 8.786-2.211v2.211a8.121 8.121 0 0 1-5.558 7.8 8.246 8.246 0 0 1-9.264-2.9 1.194 1.194 0 0 0-1.494-.3l-5.17 2.988a1.145 1.145 0 0 0-.389 1.614 16.442 16.442 0 0 0 30.062-9.2v-16.437a16.407 16.407 0 0 0-16.435-16.436zm1.076 24.594a8.229 8.229 0 1 1 7.082-7.082 8.247 8.247 0 0 1-7.086 7.082z" class="cls-2" transform="translate(-446.09 -132.5)"/>
                </g>
                <g id="Group_102" transform="translate(185.035 4.12)">
                    <path id="Path_43" d="M975.689 120.23v-5.977a1.135 1.135 0 0 0-1.135-1.136h-7.082v-7.082a1.135 1.135 0 0 0-1.136-1.136h-5.976a1.135 1.135 0 0 0-1.136 1.136v7.082h-2.988a1.135 1.135 0 0 0-1.135 1.136v5.977a1.135 1.135 0 0 0 1.135 1.136h2.988v16.7a8 8 0 0 0 7.979 7.979h5.528a1.176 1.176 0 0 0 1.106-.867l1.494-5.977a1.129 1.129 0 0 0-1.106-1.4H969.5a2.034 2.034 0 0 1-2.032-2.032v-14.4h7.082a1.135 1.135 0 0 0 1.139-1.139z" class="cls-2" transform="translate(-955.1 -104.9)"/>
                </g>
                <g id="Group_103" transform="translate(115.139 .026)">
                    <path id="Path_44" d="M736.65 103.542a13.456 13.456 0 0 0-7.2 2.092v-13.3a1.135 1.135 0 0 0-1.135-1.136h-5.977a1.135 1.135 0 0 0-1.135 1.136v42.972a1.135 1.135 0 0 0 1.135 1.136h5.977a1.135 1.135 0 0 0 1.135-1.136v-17.361a5.606 5.606 0 0 1 .09-1.016 6.15 6.15 0 0 1 12.132 0 5.837 5.837 0 0 1 .09 1.016v17.362a1.135 1.135 0 0 0 1.136 1.136h5.977a1.135 1.135 0 0 0 1.136-1.136v-19.424h-.03a13.389 13.389 0 0 0-13.331-12.341z" class="cls-2" transform="translate(-721.2 -91.2)"/>
                </g>
                <g id="Group_104" transform="translate(74.052)">
                    <path id="Path_45" d="M605.7 99.388a14.294 14.294 0 0 1 8.905 2.6 1.124 1.124 0 0 0 1.524-.209l3.8-4.632a1.155 1.155 0 0 0-.209-1.644 22.606 22.606 0 1 0 0 36.427 1.123 1.123 0 0 0 .209-1.614l-3.8-4.572a1.155 1.155 0 0 0-1.524-.209 14.393 14.393 0 1 1-8.905-26.147z" class="cls-2" transform="translate(-583.709 -91.114)"/>
                </g>
                <g id="Group_105" transform="translate(0 12.367)">
                    <path id="Path_46" d="M351.379 132.5h-.03a5.065 5.065 0 0 0-.657.03h-.03a13.141 13.141 0 0 0-6.514 2.092v.03a4.373 4.373 0 0 0-.388.269 4.156 4.156 0 0 0-3.765-2.391h-2.958a1.135 1.135 0 0 0-1.136 1.136V164.3a1.135 1.135 0 0 0 1.136 1.136h5.977a1.135 1.135 0 0 0 1.136-1.136v-17.367a5.5 5.5 0 0 1 .09-.986v-.03a6.15 6.15 0 0 1 12.132 0v.03a5.5 5.5 0 0 1 .09.986V164.3a1.135 1.135 0 0 0 1.136 1.136h5.977a1.135 1.135 0 0 0 1.135-1.136v-18.383h.06a13.372 13.372 0 0 0-13.391-13.417z" class="cls-2" transform="translate(-335.9 -132.5)"/>
                </g>
                <g id="Group_106" transform="translate(61.724 8.259)">
                    <path id="Path_47" fill="#19b9c3" d="M547.368 118.827a4.126 4.126 0 0 0-4.841 4.841 4.083 4.083 0 0 0 3.227 3.227 4.126 4.126 0 0 0 4.841-4.841 4.083 4.083 0 0 0-3.227-3.227z" transform="translate(-542.453 -118.753)"/>
                </g>
            </g>
        </g>
    </g>
</svg>
