<svg xmlns="http://www.w3.org/2000/svg" width="14.627" height="13" viewBox="0 0 14.627 13">
    <path fill="#000" d="M14.621 7.131a7.359 7.359 0 0 0-6.494-5.864V.813a.813.813 0 1 0-1.627 0v.455A7.364 7.364 0 0 0 .008 7.131c-.056.256.216.541.475.29 1.321-1.4 2.735-1.331 4.028.94a.268.268 0 0 0 .5 0c.513-.9 1.14-1.859 2.3-1.859 1.486 0 2.24 1.747 2.3 1.859a.268.268 0 0 0 .5 0c1.3-2.273 2.72-2.321 4.028-.94.268.254.538-.033.482-.29zM6.5 7.662v3.309a.406.406 0 0 1-.79.135.812.812 0 0 0-1.531.541 2.031 2.031 0 0 0 3.946-.678v-3.31a1.247 1.247 0 0 0-.813-.345 1.164 1.164 0 0 0-.812.348z" transform="translate(-.001)"/>
</svg>
