<svg xmlns="http://www.w3.org/2000/svg" xmlns:xlink="http://www.w3.org/1999/xlink" width="250.028" height="145.45" viewBox="0 0 250.028 145.45">
    <defs>
        <linearGradient id="linear-gradient" x1="11.52" x2="9.922" y1=".471" y2=".672" gradientUnits="objectBoundingBox">
            <stop offset="0" stop-color="#a9c0e5"/>
            <stop offset=".11" stop-color="#a7c4e7"/>
            <stop offset=".59" stop-color="#a0d3ee"/>
            <stop offset="1" stop-color="#9ed8f1"/>
        </linearGradient>
        <linearGradient id="linear-gradient-2" x1=".982" x2="-.614" y1=".448" y2=".697" gradientUnits="objectBoundingBox">
            <stop offset="0" stop-color="#c2e4e9"/>
            <stop offset=".2" stop-color="#b9e1ee"/>
            <stop offset=".64" stop-color="#a9ddf5"/>
            <stop offset="1" stop-color="#a4dbf8"/>
        </linearGradient>
        <linearGradient id="linear-gradient-3" x1=".979" x2="-.619" y1=".472" y2=".673" gradientUnits="objectBoundingBox">
            <stop offset="0" stop-color="#7ccad5"/>
            <stop offset="1" stop-color="#bbe2f1"/>
        </linearGradient>
        <linearGradient id="linear-gradient-4" x1=".002" x2="1.004" y1=".499" y2=".499" gradientUnits="objectBoundingBox">
            <stop offset="0" stop-color="#fcc46c"/>
            <stop offset="1" stop-color="#ee7059"/>
        </linearGradient>
        <linearGradient id="linear-gradient-5" x1="-.004" x2=".999" y1=".499" y2=".499" xlink:href="#linear-gradient-4"/>
        <linearGradient id="linear-gradient-6" x1="0" x2="1" y1=".5" y2=".5" xlink:href="#linear-gradient-4"/>
        <linearGradient id="linear-gradient-7" x1="0" x2="1" y1=".5" y2=".5" xlink:href="#linear-gradient-4"/>
        <linearGradient id="linear-gradient-8" x1=".002" x2="1.003" y1=".5" y2=".5" xlink:href="#linear-gradient-4"/>
        <linearGradient id="linear-gradient-9" x1="-.002" x2="1" y1=".499" y2=".499" xlink:href="#linear-gradient-4"/>
        <linearGradient id="linear-gradient-10" x1="0" x2="1" y1=".5" y2=".5" xlink:href="#linear-gradient-4"/>
        <clipPath id="clip-path">
            <path id="Rectangle_751" fill="none" d="M0 0H2.74V2.67H0z" transform="translate(208.69 79.15)"/>
        </clipPath>
        <style>
            .cls-2{fill:#f1e8f4}.cls-17{fill:#fff}.cls-19{fill:#f4a493}.cls-20{fill:#f18b80}.cls-22{fill:#2c488c}.cls-27{fill:#ee765b}.cls-30{fill:#113759}
        </style>
    </defs>
    <g id="Layer_1" transform="translate(.028 -4.55)">
        <path id="Path_1881" d="M151.06 12.45s-1.37 9-2.42 7.9-.06-10.54-.06-10.54-5-5.94-8.86-3.2-3.72 5.75-3 6.68 6.4 5.47 5.66 6.09-5.51-1.33-7.1-3.72c0 0-2.38 7.7.94 9.91s5.82 1.1 7.84 2.51 3 3.05 1.63 2.79-4.31-3.24-6.92-3.19-4.51-.16-2.13 2.76a18.28 18.28 0 0 0 7.5 5.35l12.41-15.23c-1.08-2.11-3.55-6.85-5.49-8.11z" class="cls-2"/>
        <path id="Path_1882" d="M25.87 73.79l-.16.19 1.48-.55a9.61 9.61 0 0 1 .33-1.43s7.07-1.43 5.74-6.88c0 0-1.34-3.52-3.51-5 0 0-.9 7.21-2.23 6.95s1.59-7.95 1.59-7.95-5.34-5.06-7.89-5.61c0 0 1.78 7.88.55 7.31s-3.46-8.69-3.46-8.69-6.09-3.28-8.36.23-1.21 6-.32 6.5 7 2.44 6.64 3.19-5 .69-7.07-.77c0 0 .53 7.13 4 7.89s5.16-1 7.29-.48 3.47 1.55 2.25 1.78-4.61-1.28-6.75-.39-3.77 1.33-.86 3a16.61 16.61 0 0 0 7.68 2L25.69 74z" class="cls-2"/>
        <path id="Path_1883" d="M217 36.52c-1.34-3.65-5.59-4.47-7.86-10.35s7.79-13.65 7.79-13.65c-.12 4.53 4.27 11.36 5.79 11.24s-1.73-11.13-1.78-13 2.55-5.83 10-5.89 8.52 12.17 8.52 12.17-9.85 11.29-9.49 13.67 10.3-8 10.3-8c1.68 4.33-.59 17.21-.59 17.21s-14.28 3.23-13.35 5.45 12.5-3.5 12.5-3.5c-.09 4.67-4 10.1-4 10.1a8.16 8.16 0 0 1-8.39 2.57L217.43 42c.64-.36.57-2.74-.43-5.48z" class="cls-2"/>
        <path id="Path_1884" d="M94.23 39.48s-1.84-4.92 2-6.2a9.15 9.15 0 0 1 4.45.23s-4.1 3.34-3.43 4.07 4.3-4 4.3-4 5.19 1.34 6.52 2.7c0 0-5.57 2-4.74 2.49s6.71-1.22 6.71-1.22 4.38 2.5 3.09 5.25-3.21 3-3.89 2.72-4.24-3.42-4.54-2.88 1.5 3.35 3.21 4.07c0 0-4.62 2.43-6.42.59s-1.39-3.58-2.52-4.7-2.3-1.54-2-.7 2.57 2.36 2.85 4 .63 2.85-1.51 1.68-5.21-4.16-4.68-6.11z" class="cls-2"/>
        <path id="Path_1885" d="M110.85 42s-12.49-5.11-16.62-2.51a9.68 9.68 0 0 1-3.81 2.62l-.59.7s3-1.51 3.87-1.36c0-.01.41-4.95 17.15.55z" class="cls-2"/>
        <path id="Path_1886" d="M90.42 42.1a8.47 8.47 0 0 0-5 4.55l.48.22s2.23-3.4 4.33-4.28.19-.49.19-.49z" class="cls-2"/>
        <path id="Path_1887" d="M80.81 23.41s6.16-1 5.19-5.76c0 0-1-3.08-2.86-4.44 0 0-1 6.19-2.16 5.93s1.63-6.82 1.63-6.82S78.17 7.77 76 7.2c0 0 1.27 6.88.23 6.34s-2.7-7.63-2.7-7.63-5.15-3-7.23-.09-1.25 5.11-.5 5.62 6 2.35 5.63 3-4.33.43-6.08-.91c0 0 .21 6.18 3.18 7s4.49-.68 6.32-.17 2.94 1.46 1.88 1.61-3.94-1.26-5.82-.56-3.31 1-.85 2.53 7.36 2.92 9.06 1.22z" class="cls-2"/>
        <path id="Path_1888" d="M68.44 7.77s12.62 9.86 12.37 15.64a11.6 11.6 0 0 0-.45 5.47l-.38 1s-.23-4-.87-4.8c0 .02 4.89-3.31-10.67-17.31z" class="cls-2"/>
        <path id="Path_1889" d="M80.36 28.88a10.06 10.06 0 0 1-1.77 7.78l-.51-.36s2.19-4.29 1.86-7 .42-.42.42-.42z" class="cls-2"/>
        <path id="Path_1890" d="M90.39 22.43S85 16.19 90 12.22c0 0 3.66-2.23 6.65-2.06 0 0-4.22 7.12-2.85 7.82S98 9.72 98 9.72s8.34-.83 11 .46c0 0-7.13 5.85-5.62 6.2s9.2-5.4 9.2-5.4 7.77 1.3 7.36 6-3.08 6.21-4.25 6.09-8.07-2.74-8.22-1.78 4 4.11 6.91 4.25c0 0-5.47 6.05-9.11 4.32s-4-4.5-6.23-5.54-4.21-1-3.27 0 5 2.08 6.35 4.37 2.47 3.84-1.3 3.28-9.9-3.3-10.17-6.46z" class="cls-2"/>
        <path id="Path_1891" d="M116.14 17.16S95 16.38 90.39 22.43a15.33 15.33 0 0 1-4.2 5.9l-.49 1.35s3.65-3.86 5-4.1c-.04 0-2.1-7.47 25.44-8.42z" class="cls-2"/>
        <path id="Path_1892" d="M86.19 28.33a13.25 13.25 0 0 0-4.82 9.34l.82.08s1.43-6.2 4-8.62 0-.8 0-.8z" class="cls-2"/>
        <path id="Path_1893" fill="#f6f9eb" d="M250 82.23a42.79 42.79 0 0 0-19.9-36.17 51.54 51.54 0 0 1-15.9-15.93A42.83 42.83 0 0 0 140.63 32a21 21 0 0 1-18.49 10.5h-1.32a35 35 0 0 1-22-7.44 42.83 42.83 0 0 0-68.77 34.09 3.51 3.51 0 0 1-2.25 3.3A42.84 42.84 0 0 0 0 114.11c.74 21.61 24 37.76 56.54 31.71 15 0 37.07 2.65 54.51 0 10.92 0 36.88 2.87 59.62.2 50.71 8.44 73.31-6.44 73.31-30.1v-1.54a41.83 41.83 0 0 1 3.11-16.61A42.63 42.63 0 0 0 250 82.23z"/>
        <path id="Path_1894" fill="url(#linear-gradient)" d="M34.62 32a.35.35 0 0 0 .35-.35c0-1.9.65-11 8.78-12.89 9.09-2.13 13.25 7 13.25 7s11.25-4.26 13.4 7.15c7 1.65 8.85 10.59 4.43 15.08a4.21 4.21 0 0 1-2.94 1.24l-43.95.39a3.07 3.07 0 0 1-3-2.21C23.59 42.73 22 32.29 34.62 32z"/>
        <path id="Path_1895" fill="url(#linear-gradient-2)" d="M224.21 58.07a8.68 8.68 0 0 0-2.11-5 11.14 11.14 0 0 0-5-2.69c-4.12-1.33-9.78-1.34-11.92 3.27 0 0-9.82-9-17.47 1-14.16 2.6-13.67 15.3-8.94 19.93a4.29 4.29 0 0 0 3 1.21l41.92.37c8 .07 11.69-11.86 4.38-16.65a12.8 12.8 0 0 0-3.86-1.44z"/>
        <path id="Path_1896" fill="url(#linear-gradient-3)" d="M191.92 17.48a.23.23 0 0 1-.23-.24c0-1.26-.44-7.33-5.87-8.61-6.07-1.42-8.85 4.68-8.85 4.68s-7.51-2.85-8.95 4.78c-4.67 1.1-5.91 7.07-3 10.07a2.78 2.78 0 0 0 2 .83l29.37.26a2 2 0 0 0 2-1.47c.9-3.13 1.99-10.1-6.47-10.3z"/>
        <rect id="Rectangle_732" width="249.69" height="8.36" fill="#878787" rx="4.18" transform="translate(0 141.64)"/>
        <path id="Path_1897" fill="url(#linear-gradient-4)" d="M84 59.37a40.47 40.47 0 0 1 5.61-20.6 1.85 1.85 0 0 0-.15-2.13 1.86 1.86 0 0 0-3 .22 44.35 44.35 0 0 0-2.14 41 1.86 1.86 0 0 0 3.12.39 1.84 1.84 0 0 0 .24-2A40.62 40.62 0 0 1 84 59.37z"/>
        <path id="Path_1898" fill="url(#linear-gradient-5)" d="M166 59.37a41 41 0 0 1-3.63 16.94 1.85 1.85 0 0 0 .24 1.94 1.85 1.85 0 0 0 3.11-.39 44.81 44.81 0 0 0-2.13-41 1.85 1.85 0 0 0-3-.22 1.86 1.86 0 0 0-.15 2.11A40.85 40.85 0 0 1 166 59.37z"/>
        <path id="Path_1899" fill="url(#linear-gradient-6)" d="M89.47 59.38a35.14 35.14 0 0 1 4-16.32 1.59 1.59 0 0 0-.17-1.77 1.61 1.61 0 0 0-2.67.26 38.37 38.37 0 0 0-1.93 31.34 1.61 1.61 0 0 0 2.75.44 1.61 1.61 0 0 0 .26-1.59 35.2 35.2 0 0 1-2.24-12.36z"/>
        <path id="Path_1900" fill="url(#linear-gradient-7)" d="M160.55 59.38a35.65 35.65 0 0 1-2.22 12.41 1.62 1.62 0 0 0 .26 1.57 1.6 1.6 0 0 0 2.74-.44 38.88 38.88 0 0 0-1.93-31.42 1.6 1.6 0 0 0-2.65-.26 1.59 1.59 0 0 0-.17 1.76 35.55 35.55 0 0 1 3.97 16.38z"/>
        <path id="Path_1901" fill="url(#linear-gradient-8)" d="M155 59.38a30 30 0 0 1-1 7.52 1.32 1.32 0 0 0 .26 1.19 1.34 1.34 0 0 0 2.34-.49 32.7 32.7 0 0 0-1.6-21.13 1.35 1.35 0 0 0-2.28-.32 1.35 1.35 0 0 0-.19 1.39A29.9 29.9 0 0 1 155 59.38z"/>
        <path id="Path_1902" fill="url(#linear-gradient-9)" d="M95.05 59.38a29.6 29.6 0 0 1 2.45-11.81 1.35 1.35 0 0 0-.19-1.39 1.36 1.36 0 0 0-2.29.32 32.45 32.45 0 0 0-1.62 21.14 1.35 1.35 0 0 0 2.34.48 1.34 1.34 0 0 0 .26-1.24 29.88 29.88 0 0 1-.95-7.5z"/>
        <path id="Path_1903" fill="url(#linear-gradient-10)" d="M125 84.9a26.27 26.27 0 1 0-26.27-26.27A26.27 26.27 0 0 0 125 84.9zm-6.23-29.77h3.53V54h-3.53v-1.56h3.53v-1.18h-3.53v-1.59h3.53v-1.18h-3.53V43.8a6 6 0 0 1 6-6h.5a6 6 0 0 1 6 6v4.69H128v1.18h3.28v1.59H128v1.18h3.28V54H128v1.17h3.28v4.13a6 6 0 0 1-6 6h-.5a6 6 0 0 1-6-6zm-4.54-7.24a1 1 0 0 1 1.9 0v11a8.87 8.87 0 0 0 17.74 0v-11a.95.95 0 1 1 1.9 0v11A10.78 10.78 0 0 1 126 69.61V79a1 1 0 0 1-1.9 0v-9.39a10.78 10.78 0 0 1-9.82-10.72z"/>
        <path id="Path_1904" fill="#6fc2b6" d="M96.19 94l2.54-7-4.43 6.13a9.87 9.87 0 0 0-3-.48H64.14a9.91 9.91 0 1 0 0 19.81h27.12A9.9 9.9 0 0 0 96.19 94z"/>
        <path id="Path_1905" fill="#c6d53e" d="M133.83 97l-2.61-7.21 4.55 6.34a10.28 10.28 0 0 1 3.11-.49h27.8a10.16 10.16 0 1 1 0 20.31h-27.8a10.14 10.14 0 0 1-5-19z"/>
        <rect id="Rectangle_733" width="1.28" height="7.99" class="cls-17" rx=".64" transform="translate(64.33 98.5)"/>
        <rect id="Rectangle_734" width="1.28" height="10.29" class="cls-17" rx=".64" transform="translate(67.97 97.35)"/>
        <rect id="Rectangle_735" width="1.28" height="8.16" class="cls-17" rx=".64" transform="translate(71.61 98.42)"/>
        <rect id="Rectangle_736" width="1.28" height="11.86" class="cls-17" rx=".64" transform="translate(75.24 96.57)"/>
        <rect id="Rectangle_737" width="1.28" height="14.28" class="cls-17" rx=".64" transform="translate(78.88 95.36)"/>
        <rect id="Rectangle_738" width="1.28" height="12.08" class="cls-17" rx=".64" transform="translate(82.52 96.46)"/>
        <rect id="Rectangle_739" width="1.28" height="8.54" class="cls-17" rx=".64" transform="translate(86.16 98.23)"/>
        <rect id="Rectangle_740" width="1.28" height="5.93" class="cls-17" rx=".64" transform="translate(89.79 99.53)"/>
        <rect id="Rectangle_741" width="1.28" height="8.16" class="cls-17" rx=".64" transform="translate(135.77 101.38)"/>
        <rect id="Rectangle_742" width="1.28" height="11.86" class="cls-17" rx=".64" transform="translate(139.4 99.53)"/>
        <rect id="Rectangle_743" width="1.28" height="14.28" class="cls-17" rx=".64" transform="translate(143.04 98.32)"/>
        <rect id="Rectangle_744" width="1.28" height="12.08" class="cls-17" rx=".64" transform="translate(146.68 99.42)"/>
        <rect id="Rectangle_745" width="1.28" height="8.54" class="cls-17" rx=".64" transform="translate(150.32 101.19)"/>
        <rect id="Rectangle_746" width="1.28" height="8.16" class="cls-17" rx=".64" transform="translate(154.22 101.38)"/>
        <rect id="Rectangle_747" width="1.28" height="11.86" class="cls-17" rx=".64" transform="translate(157.85 99.53)"/>
        <rect id="Rectangle_748" width="1.28" height="14.28" class="cls-17" rx=".64" transform="translate(161.49 98.32)"/>
        <rect id="Rectangle_749" width="1.28" height="12.08" class="cls-17" rx=".64" transform="translate(165.13 99.42)"/>
        <rect id="Rectangle_750" width="1.28" height="8.54" class="cls-17" rx=".64" transform="translate(168.77 101.19)"/>
        <path id="Path_1906" fill="#4eb26b" d="M192 107.64h-30.51l-9.06-7.94 3.55 8.65a7 7 0 0 0 3.02 13.28h33a7 7 0 1 0 0-14z"/>
        <path id="Path_1907" d="M166.41 112.3c-.36 0-.64.17-.64.37v3.9c0 .2.28.37.64.37.35 0 .64-.17.64-.37v-3.9c0-.2-.29-.37-.64-.37z" class="cls-17"/>
        <path id="Path_1908" d="M170.05 111.63c-.36 0-.64.17-.64.37v5.23c0 .21.28.38.64.38.35 0 .63-.17.63-.38V112c0-.2-.28-.37-.63-.37z" class="cls-17"/>
        <path id="Path_1909" d="M173.68 117c.36 0 .64-.17.64-.37v-4c0-.2-.28-.37-.64-.37-.35 0-.64.17-.64.37v4c-.04.19.29.37.64.37z" class="cls-17"/>
        <path id="Path_1910" d="M177.32 118.06c.35 0 .64-.16.64-.37v-6.14c0-.21-.29-.37-.64-.37-.35 0-.64.16-.64.37v6.14c0 .21.32.37.64.37z" class="cls-17"/>
        <path id="Path_1911" d="M181 118.76c.35 0 .64-.16.64-.37v-7.54c0-.21-.29-.38-.64-.38-.36 0-.64.17-.64.38v7.54c-.04.21.24.37.64.37z" class="cls-17"/>
        <path id="Path_1912" d="M184.6 118.13c.35 0 .63-.17.63-.38v-6.26c0-.21-.28-.38-.63-.38-.36 0-.64.17-.64.38v6.26c.04.25.28.38.64.38z" class="cls-17"/>
        <path id="Path_1913" d="M214.38 88.67s3.56 7.8 4.3 9.26a57.662 57.662 0 0 1 2.23 6.14c.07.22-1.79 2.71-1.45 2.84s.85-1.25 1.22-1 1.22 3.78 1.48 3.66c.42-.28-.46-2.21-.23-2.3s.73 2.1 1.16 2.09-.67-2-.54-2.19 1.29 1.76 1.54 1.42c.14-.19-1.07-1.68-.81-1.78s1.36.9 1.5.67-1-.72-1.34-1.43a5.678 5.678 0 0 1-1.07-2.34c-.17-1.27-.23-5.82-1.37-8.2l-3.66-7.68z" class="cls-19"/>
        <path id="Path_1914" d="M215.5 80a11.72 11.72 0 0 0-1.07-5.62 4.74 4.74 0 0 0-4.22-2.44c-5.29 0-6 7-9.34 9.75-1 .83-2.17 1.5-3.15 2.39-3.59 3.3-2 9.4 1.33 12.28 2.29 2 5.89 3.15 8.71 1.58a8.86 8.86 0 0 0 3.39-3.66 51 51 0 0 0 2.67-6.8A25.69 25.69 0 0 0 215.5 80"/>
        <path id="Path_1915" d="M196.61 72.48c.25-.17.86 1.09 1.16 1.08s-.2-1.77 0-1.91c.42-.25.67 1.89.87 1.79s0-2.32.47-2.2-.08 2.31.17 2.3.29-2.09.83-2.21c.29-.07-.49 3.52-.22 3.83s1.37-.83 1.66-.61-2.19 1.91-2.22 2.14-.56 5-.49 6.64c.55 0 3.65.65 4.18.67-.34 1 .5 2 .22 3-1.75-.16-6.94-.55-7.26-.92-1-1.14.82-8.19 1.22-9.43a5.18 5.18 0 0 0 0-2.5c0-.76-.9-1.56-.66-1.74" class="cls-19"/>
        <path id="Path_1916" d="M204.7 144.55a12.1 12.1 0 0 1 2.2-1.22 3.02 3.02 0 0 0 .54-.33 4.63 4.63 0 0 0 .88-.77 4.35 4.35 0 0 0 .42-1.9c-.14-1.61-2.46-27.32-3-30.1a27.53 27.53 0 0 1 .26-7.26l1.79-.67 3.39 11.79-.25 9a24.342 24.342 0 0 1 .9 4.13c.1 1.55-1.16 14.11-1.16 14.11a6.9 6.9 0 0 0 .07 1.11c.1.47.61 1.44.37 1.88a1.16 1.16 0 0 1-.5.55l-6.1.1c-.33 0-.11-.21.16-.41" class="cls-20"/>
        <path id="Path_1917" fill="#f49d8f" d="M214 102.05a20.24 20.24 0 0 1 2.63 5.86c.5 2.65-.37 10.8.61 14.27.53 1.89 2.52 4.79 2.82 7.22s1.36 9.45 1.36 9.45a6.33 6.33 0 0 0 .74 2.07 5.77 5.77 0 0 1 .79 1.05 3.13 3.13 0 0 1-.1 2.44c-.14.31 0 .31-.31.4a2 2 0 0 1-2.36-1.1 5.56 5.56 0 0 1-.46-2 9.82 9.82 0 0 0-.34-2.16l-6.79-16.66-4.92-14.38-1.26-7.41z"/>
        <path id="Path_1918" d="M216.23 94.19s-3.3-4.94-3.6-6.75 1.34-4.06 3-3.89 4.52 8.45 4.52 8.45z" class="cls-22"/>
        <path id="Path_1919" fill="#5a76b9" d="M212.61 122.52h-1.54a24.74 24.74 0 0 1-4.39-.17c-.61-5.86-.81-11.21-1-12.4-.53-2.87.46-7.4.46-7.4l-.08-1.08.25-.69 7.92 1a19.82 19.82 0 0 1 2.73 5.85c.53 2.65-.39 10.81.61 14.28 0 0-2.25.35-4.87.53"/>
        <path id="Path_1920" fill="#2b4270" d="M201.86 83.56s5.9-.61 7.65 0 3 3 2 4.46-9.32-.43-9.32-.43z"/>
        <path id="Path_1921" d="M212.28 83s2.92-.18 4.07 1-2.56 11-2.77 12.52 1.07 5.7 1.07 5.7-6.86 1.34-8.82.08c0 0-.36-11.31-.16-12.43a30.77 30.77 0 0 1 2.54-6c.42-.45 4.07-.89 4.07-.89" class="cls-22"/>
        <path id="Path_1922" d="M211.3 79.23a.89.89 0 0 0 0 .22 21 21 0 0 0 1 3.57c.41.76-1.41 3.16-3.15 2.86-.52-.09.44-2.2.4-2.43-.1-.43-.21-1-.33-1.62-.08-.34-.14-.68-.21-1l-.34-1.67z" class="cls-19"/>
        <g id="Group_121" opacity="0.5">
            <g id="Group_120" clip-path="url(#clip-path)">
                <path id="Path_1923" d="M211.34 79.44a.62.62 0 0 0 0-.23l-2.61-.06.34 1.67c.07.32.13.66.2 1a2.45 2.45 0 0 0 1.25-.61 3.15 3.15 0 0 0 .94-1.36.659.659 0 0 0-.08-.41" class="cls-27"/>
            </g>
        </g>
        <path id="Path_1924" d="M209.55 73.45a2.38 2.38 0 0 1 2 .82c.77 1 1.6 4-.32 5.61s-3.81-.22-4.09-2.18-.39-4.33 2.44-4.26" class="cls-19"/>
        <path id="Path_1925" d="M206.57 77.68c.23.43.61.67.86.53s.26-.61 0-1-.61-.67-.85-.54-.27.61 0 1" class="cls-19"/>
        <path id="Path_1926" d="M209.41 73.13s1.64 2.86 2.82 3 1.33 1.65 1.33 1.65-.42-3.5-1.58-4.17a4.49 4.49 0 0 0-2.57-.47"/>
        <path id="Path_1927" d="M211.92 76.83c-.09.5.1 1 .43 1a.875.875 0 0 0 .78-.8c.1-.52-.1-1-.43-1a.877.877 0 0 0-.78.8" class="cls-19"/>
        <path id="Path_1928" d="M27.9 136.39s-.91 1-.92 1.27 0 3.89.42 4.21 1.5.53 1.15.91-2.35.28-3.73.31c-.41 0-1-3.21-1.16-3.69-.25-.68-.86-2.21-.66-2.69a3.75 3.75 0 0 1 1.25-1.19 6.75 6.75 0 0 0 1.37-1.52z" class="cls-20"/>
        <path id="Path_1929" d="M37.57 138.22l-.77 2.38a9.72 9.72 0 0 0-.27 1.63c0 1.27 5.7-1.23 4.4-1.76a1.4 1.4 0 0 1-.55-.88 3.12 3.12 0 0 1 .45-1.51z" class="cls-19"/>
        <path id="Path_1930" fill="#3e907c" d="M45.29 94.31s.54 4.19.54 4.25c.2 6.8 1.93 20 1.71 21.33-.54 3.14-6.82 19.23-6.82 19.23l-3.65-.32 4.16-19.2-2-7.61-2.9-15.08z"/>
        <path id="Path_1931" fill="#56baa4" d="M33.19 98.37l-.57 4-1.39 16.46-6.65 16.23s1.06 2.3 2.56 2.58L38 120.87l6.44-21.25L44 95z"/>
        <path id="Path_1932" d="M24.3 135.45s2.31 6 3.18 6.23c.23 0 1.29.29 1.52.7a5.19 5.19 0 0 1 .12.79l-4.64.28s-.58-3-.83-4.12a17.19 17.19 0 0 1-1.14-3.07c.13-.27 1.81-.8 1.81-.8" class="cls-30"/>
        <path id="Path_1933" d="M36.19 142.8l.64-2.23a5.43 5.43 0 0 0 2.07.46c.68-.12 2-.54 2-.54 2.77.82 5 1.2 4.64 1.94z" class="cls-30"/>
        <path id="Path_1934" d="M56.57 83.08l1.55 1.86c.42-.2 1.48-1.2 2.07-1.45l-1.25-2.25a.51.51 0 0 1-.11-.49 2.291 2.291 0 0 1 .07-.28c.08-.14.18-.31.26-.43s-.2-.52-.37-.62-.4.6-.53.8a24.491 24.491 0 0 0-1.18 2.55z" class="cls-20"/>
        <path id="Path_1935" d="M58.38 84.8c-.41-.68-1.08-1.17-1.5-1.86l-9.6 3.87s-4.73-9.06-8.84-7.13a59.31 59.31 0 0 0 3 7.18C43 90 45.94 92 46.64 91.83s11.53-6.83 11.77-7" class="cls-30"/>
        <path id="Path_1936" d="M26.23 57.63c.1.8.33 2 .33 2-.08.34-.31 1.73-.6 3.44l2.63-.75a26.791 26.791 0 0 1 .38-3c.11-.14.26.06 1.14-1a2.09 2.09 0 0 0 .35-.86s.16-.7 0-.79a.35.35 0 0 0-.42.13l-.11.52a.9.9 0 0 1-.61.2 9.08 9.08 0 0 1 .23-2.08l.17-.77a4 4 0 0 1 .25-.63s.25-.68 0-.75-.49.48-.79 1.07a10.41 10.41 0 0 1-.57 1.28c-.16 0 0-1.14 0-1.14a3.83 3.83 0 0 0 .23-.75c.18-.29.34-.84.08-.91a6.079 6.079 0 0 0-.47.66s-.19.49-.29.72c-.18.39-.25 1.09-.38 1.32s-.13.13-.15.14a5.56 5.56 0 0 1 .17-.77 3.82 3.82 0 0 1 .16-.73 6.76 6.76 0 0 0 .17-.78c.13-.58-.27-.57-.46 0a2.81 2.81 0 0 1-.21.64c-.28.87-.38 1.72-.46 1.71a6.7 6.7 0 0 1 .1-1.55s-.1-.86-.37-.08a8.23 8.23 0 0 0-.37 1.69 7.25 7.25 0 0 0-.13 1.8" class="cls-19"/>
        <path id="Path_1937" d="M41.09 68.3a1.38 1.38 0 0 0-2.31.08 1 1 0 0 0-1.39.22s-1.4-.59-2 1.54a.75.75 0 0 0-.9.66 2.09 2.09 0 0 0 .21 1.49 1.11 1.11 0 0 0-.34 1.07 1 1 0 0 0 .65.87 2.94 2.94 0 0 0 .5 1.58 1.7 1.7 0 0 0 1.18.26.8.8 0 0 0 .71.65c.6 0 1.38-.48 2-.17a6.76 6.76 0 0 0 2.37.22 2.39 2.39 0 0 0 1.61-2.67 1.44 1.44 0 0 0 .33-2 2.53 2.53 0 0 0-.36-2.78 3.32 3.32 0 0 0-2.26-1.08" class="cls-27"/>
        <path id="Path_1938" fill="#f7cc7f" d="M42.4 81.22l-2.54-2.13-3-.22c-.32-.07-3.58 11.72-4.61 16.13s-.66 5.29-.66 5.29a29.63 29.63 0 0 0 7.17 1.38 23.8 23.8 0 0 0 7-1.35s-1.87-8.92-2.14-11.68-1.24-7.47-1.24-7.47"/>
        <path id="Path_1939" d="M37 78.86l-7.76-9.6s-.41-8.44-.43-8.75-2.13-.68-3-.87c-.27-.06-.73 8.87-.47 10.41.31 1.8 6 10.5 6 10.5a26.58 26.58 0 0 1 .13 7.61c-1 5.24-3 12.39-2.81 12.63 1.31 1 6.69 1.65 7.09 1.14 4.35-5.69 1.19-23 1.19-23" class="cls-30"/>
        <path id="Path_1940" d="M40 77.49v1.75s.27 2.54-.44 3S37 78.87 37 78.87l.65-4.29z" class="cls-19"/>
        <path id="Path_1941" d="M37.47 75.93A5 5 0 0 0 40 79l-.06-1.48-2.27-2.91z" class="cls-27"/>
        <path id="Path_1942" d="M34.41 71.19a1.15 1.15 0 0 0 .73 1.31c.46.1.89-.45 1-1.12a1.14 1.14 0 0 0-.72-1.31c-.44-.1-.9.45-1 1.12" class="cls-27"/>
        <path id="Path_1943" d="M37.21 68.84c-.08.38.4.75 1 .8s1.06-.2 1.1-.58-.39-.75-1-.8-1.06.21-1.1.59" class="cls-27"/>
        <path id="Path_1944" d="M39.7 70.07a2.33 2.33 0 0 1 2.78 1.75 1.92 1.92 0 0 1 .05.41 17.36 17.36 0 0 1-.05 2.28c-.15 2-1.4 3.87-2.31 3.78A4.35 4.35 0 0 1 37 73.77a3.86 3.86 0 0 1 2.64-3.64" class="cls-19"/>
        <path id="Path_1945" d="M37.67 74a.66.66 0 0 1-.84.46.68.68 0 0 1 .26-1.33.74.74 0 0 1 .58.87" class="cls-19"/>
        <path id="Path_1946" d="M43.77 69.46c.86.85 1.08 2 .48 2.62a2 2 0 0 1-2.66-.43c-.88-.85-1.1-2-.49-2.62a2 2 0 0 1 2.67.43" class="cls-27"/>
        <path id="Path_1947" d="M41.22 69.83a.8.8 0 0 1-.93.5c-.49 0-.85-.35-.82-.67s.45-.55.93-.5.86.35.82.67" class="cls-27"/>
        <path id="Path_1948" d="M43.59 72.6a.76.76 0 0 1-.82.69.77.77 0 0 1-.67-.84.76.76 0 0 1 .83-.67.75.75 0 0 1 .67.82" class="cls-27"/>
        <path id="Path_1949" d="M44.41 83.52s1.88 10.31 2.6 14c.07.4.32 2.92.3 3.17-.06.52-2.45 1-2.72.91s-1.24-10.74-2-16a15 15 0 0 0-1.77-5.07l-.74-.94v-.3s4 1.26 4.39 4.27" class="cls-30"/>
        <path id="Path_1950" d="M60.74 82.73v-.46a1.15 1.15 0 0 0-.16-.45.72.72 0 0 1-.06-.29.42.42 0 0 0 0-.12 1.17 1.17 0 0 0-.19-.3.9.9 0 0 1-.2-.34.88.88 0 0 0-.24-.33h-.25c-.28.29-1.5 1.15-1.21 1.76.22.42.43.85.61 1.28s.49.39.78.35a1 1 0 0 0 1-1" class="cls-19"/>
        <path id="Path_1951" fill="#b9d15d" d="M117.75 115.92h-3l-.53-4.74-2.43 4.74h-12a8.69 8.69 0 0 0 0 17.38h18a8.69 8.69 0 1 0 0-17.38z"/>
        <rect id="Rectangle_752" width="1.28" height="7.99" class="cls-17" rx=".64" transform="translate(120.72 120.68)"/>
        <rect id="Rectangle_753" width="1.28" height="10.29" class="cls-17" rx=".64" transform="translate(117.08 119.53)"/>
        <rect id="Rectangle_754" width="1.28" height="8.16" class="cls-17" rx=".64" transform="translate(113.44 120.59)"/>
        <rect id="Rectangle_755" width="1.28" height="11.86" class="cls-17" rx=".64" transform="translate(109.8 118.74)"/>
        <rect id="Rectangle_756" width="1.28" height="14.28" class="cls-17" rx=".64" transform="translate(106.17 117.53)"/>
        <rect id="Rectangle_757" width="1.28" height="12.08" class="cls-17" rx=".64" transform="translate(102.53 118.63)"/>
        <rect id="Rectangle_758" width="1.28" height="8.54" class="cls-17" rx=".64" transform="translate(98.89 120.4)"/>
        <rect id="Rectangle_759" width="1.28" height="5.93" class="cls-17" rx=".64" transform="translate(95.25 121.71)"/>
        <path id="Path_1952" d="M207.57 142.91s-.23.46.27.49a7.57 7.57 0 0 0 3-.68l.51 1.36a1.88 1.88 0 0 1-.6.82l-6.39.17s-.53-.18.11-.65a24.848 24.848 0 0 1 3.1-1.51z" class="cls-30"/>
        <path id="Path_1953" d="M219.57 140.46s.66 2.16 1.39 2.09.73-2.62.73-2.62a13.941 13.941 0 0 1 1.44 2.33c.21.68.3 2.41-.37 3s-2.12-.19-2.57-.83a7.74 7.74 0 0 1-.62-3.97z" class="cls-30"/>
    </g>
</svg>
