<svg xmlns="http://www.w3.org/2000/svg" xmlns:xlink="http://www.w3.org/1999/xlink" width="50.718" height="45.65" viewBox="0 0 50.718 45.65">
    <defs>
        <linearGradient id="9dunidnxpb" x1=".196" x2=".671" y1=".067" y2=".741" gradientUnits="objectBoundingBox">
            <stop offset="0" stop-color="#50ffc5"/>
            <stop offset=".1" stop-color="#43efc5"/>
            <stop offset=".3" stop-color="#31d7c4"/>
            <stop offset=".5" stop-color="#23c6c3"/>
            <stop offset=".72" stop-color="#1cbcc3"/>
            <stop offset="1" stop-color="#19b9c3"/>
        </linearGradient>
        <linearGradient id="1ts4ph6tra" x1="1.026" x2="-.169" y1="1.093" y2="-.485" gradientUnits="objectBoundingBox">
            <stop offset="0" stop-color="#19b9c3"/>
            <stop offset="1" stop-color="#4ffec5"/>
        </linearGradient>
        <linearGradient id="pfxtums98c" x1="2.119" x2="-4.346" y1="2.119" y2="-4.346" xlink:href="#1ts4ph6tra"/>
        <linearGradient id="dstt565bpd" x1=".854" x2="-5.757" y1=".854" y2="-5.757" xlink:href="#1ts4ph6tra"/>
    </defs>
    <g transform="translate(.166 -45.4)">
        <path fill="url(#9dunidnxpb)" d="M48.564 87.63a18.652 18.652 0 0 1-3.151-4.2c-1.139-2.264-1.021-2.714-.008-4.617.2-.371 4.29-7.376 4.29-7.376a6.442 6.442 0 0 0 0-6.422l-9.47-16.4a6.439 6.439 0 0 0-5.562-3.215h-18.94a6.439 6.439 0 0 0-5.562 3.211l-9.47 16.4a6.439 6.439 0 0 0 0 6.422l9.157 15.86a7.515 7.515 0 0 0 6.508 3.757h7.88a1.093 1.093 0 0 0 .939-.532l1.074-1.8a1.093 1.093 0 0 0-.938-1.652h-9.588a2.444 2.444 0 0 1-2.111-1.22L4.458 69.99a3.531 3.531 0 0 1 0-3.53l9.154-15.86a2.444 2.444 0 0 1 2.111-1.218h18.94a2.444 2.444 0 0 1 2.111 1.218l9.47 16.4a2.445 2.445 0 0 1 0 2.437l-.918 1.643-.026-.016c-.1.17-2.514 4.181-3.412 5.868-1.912 3.592-1.424 5.526-.033 8.284l.124.24a1.09 1.09 0 0 1-.963 1.6h-4a1.092 1.092 0 0 0-.941.537l-1.062 1.8a1.093 1.093 0 0 0 .941 1.648h13.437a1.093 1.093 0 0 0 .761-1.876z"/>
        <path fill="url(#1ts4ph6tra)" d="M301.742 311.534l-.819 5.866a.5.5 0 0 1-.4.42l-13.076 2.315a1.072 1.072 0 0 0-.858 1.294 1.072 1.072 0 0 0 1.045.836h11.887a.446.446 0 0 1 .421.3l.532 1.535a.446.446 0 0 1-.421.594h-13.892a1.165 1.165 0 0 1-.217-.02 1.065 1.065 0 0 1-.991-.827l-2.873-12.587a1.071 1.071 0 0 0-1.048-.834h-1.17a1.227 1.227 0 0 1-1.183-.88 1.2 1.2 0 0 1-.05-.336 1.222 1.222 0 0 1 1.233-1.21h3.343a.5.5 0 0 1 .49.387l.045.2a1.071 1.071 0 0 0 .945.829l16.612 1.558a.5.5 0 0 1 .444.563z" transform="translate(-264.987 -249.592)"/>
        <circle cx="2.031" cy="2.031" r="2.031" fill="url(#pfxtums98c)" transform="translate(20.531 75.941)"/>
        <circle cx="2.031" cy="2.031" r="2.031" fill="url(#dstt565bpd)" transform="translate(30.982 75.941)"/>
    </g>
</svg>
