<svg xmlns="http://www.w3.org/2000/svg" xmlns:xlink="http://www.w3.org/1999/xlink" width="370" height="113.967" viewBox="0 0 370 113.967">
    <defs>
        <linearGradient id="hrsdqqz0ja" x1="-.009" x2="1.008" y1=".5" y2=".5" gradientUnits="objectBoundingBox">
            <stop offset="0" stop-color="#19b9c3"/>
            <stop offset="1" stop-color="#4ffec5"/>
        </linearGradient>
        <linearGradient id="exnd9mrykb" x1="-31.225" x2="36.406" xlink:href="#hrsdqqz0ja"/>
        <linearGradient id="u51il6nb1c" x1="-35.992" x2="31.658" y1=".501" y2=".501" xlink:href="#hrsdqqz0ja"/>
        <linearGradient id="5ezlcallcd" x1="-3.414" x2="4.426" xlink:href="#hrsdqqz0ja"/>
        <linearGradient id="3y9qjncpce" x1="-12.247" x2="5.49" xlink:href="#hrsdqqz0ja"/>
        <linearGradient id="hie7bj72xf" x1="-31.188" x2="1.607" y1=".499" y2=".499" xlink:href="#hrsdqqz0ja"/>
        <linearGradient id="yuaxdanibg" x1="-18.34" x2="3.788" xlink:href="#hrsdqqz0ja"/>
        <linearGradient id="dqp4wbslvh" x1="-20.841" x2="1.285" y1=".499" y2=".499" xlink:href="#hrsdqqz0ja"/>
        <linearGradient id="6jsl7m1joi" x1="-34.286" x2="4.1" xlink:href="#hrsdqqz0ja"/>
        <linearGradient id="2g4fvwdxij" x1="-18.422" x2="3.734" y1=".501" y2=".501" xlink:href="#hrsdqqz0ja"/>
    </defs>
    <g>
        <g>
            <g>
                <path fill="url(#hrsdqqz0ja)" d="M1.169 113.978a1.188 1.188 0 0 1-.5-2.238C46.4 88.963 85.877 79.746 137.32 79.6V58.395H106.1a27.515 27.515 0 0 1-1.642 7.745c-2.1 5.122-6.085 5.425-8.254.193a33.507 33.507 0 0 1-1.9-7.938h-9.63c-.509 8.254-1.747 13.757-3.26 16.376-1.674 2.9-4.191 2.976-6.026.174-1.678-2.55-3.247-8.048-4.288-16.55H59.541c-.289 2.871-.633 9.91-1.926 15.871-2.71 12.528-9.63 13.111-12.427.271a140.616 140.616 0 0 1-2.146-16.142H1.2a1.179 1.179 0 1 1 0-2.357h41.663c-.426-4.586-1.376-21.645-7.493-22.346a1.179 1.179 0 0 1 .271-2.339c8.254.917 9.02 18.453 9.6 24.685H57.45c1.105-10.231 2.44-22.012 7.75-21.828 5.961.183 7.507 17.151 8.043 21.828h9.227c.252-4.677.578-18.228 7.076-17.518 4.677.537 6.168 11.969 6.847 17.5h7.507a41.347 41.347 0 0 1 .821-6.5c1.467-6.113 6.97-4.806 9.722.073 1.435 2.6 2.751 4.288 4.586 5.26a12.134 12.134 0 0 0 5.274 1.192h13.017V34.609C86.166 35.425 45.972 25.07.725 2.215a1.179 1.179 0 0 1 1.063-2.1C46.729 22.8 86.514 33.072 137.315 32.27v-8.713A13.835 13.835 0 0 1 151.155 9.8h67.727a13.835 13.835 0 0 1 13.84 13.757v8.713c45.9 1.142 91.632-10.877 132.762-30.679a1.178 1.178 0 1 1 1.032 2.119c-41.432 19.952-87.533 32.059-133.8 30.912v21.416h16.807a1.183 1.183 0 0 1 0 2.362h-16.797v21.176c20.75-.138 43.67 3.059 65.489 8.02 26.235 5.961 50.9 14.5 68.327 22.864l.1.046a1.18 1.18 0 0 1-1.128 2.073c-17.274-8.291-41.762-16.738-67.832-22.7-21.672-4.93-44.413-8.1-64.962-7.965v8.947a13.835 13.835 0 0 1-13.84 13.757h-67.72a13.835 13.835 0 0 1-13.84-13.757v-8.905c-51.076.129-90.22 9.273-135.614 31.885a1.211 1.211 0 0 1-.537.138zM218.882 13.757H151.16a9.878 9.878 0 0 0-9.887 9.8V90.88a9.9 9.9 0 0 0 9.887 9.827h67.74a9.891 9.891 0 0 0 9.882-9.827V23.562a9.882 9.882 0 0 0-9.9-9.8zm-163.395 59.5c1.073-5.686 1.481-12.634 1.7-14.858H45.454a136.2 136.2 0 0 0 2.091 15.647c2.43 11.061 6.081 9.222 7.961-.784zm23.887.344c1.344-2.357 2.453-7.4 2.949-15.2h-8.8c.991 7.961 2.4 13.014 3.884 15.266.862 1.312 1.206 1.312 1.986-.064zm22.887-8.323a24.69 24.69 0 0 0 1.459-6.878h-7.025a31.013 31.013 0 0 0 1.7 7.044c1.353 3.265 2.563 2.976 3.852-.183zM65.117 36.557c-3.091 0-4.278 10.359-5.264 19.48h11.006c-.353-3.063-2.2-19.37-5.723-19.48zm23.965 4.311c-3.669 0-4.09 12.125-4.256 15.17H94c-.614-5.044-1.926-14.849-4.714-15.16a1.423 1.423 0 0 0-.2 0zm23.268 9.882c-.848-1.527-2.252-2.967-3.444-2.967-.8 0-1.5.633-1.9 2.293a39.533 39.533 0 0 0-.752 5.961h10.29a16.573 16.573 0 0 1-4.191-5.31zm221.657 42.423a1.376 1.376 0 0 1-1.376-1.376V70.2a1.376 1.376 0 1 1 2.751 0v21.6a1.376 1.376 0 0 1-1.376 1.376zm-52.149-34.732a1.179 1.179 0 0 1 0-2.357H322.8a1.179 1.179 0 1 1 0 2.357zm65.516 0a1.179 1.179 0 0 1 0-2.357h21.466a1.179 1.179 0 0 1 0 2.357zm-13.3-13.3a1.376 1.376 0 0 1-1.417-1.3V22.122a1.353 1.353 0 0 1 2.7 0V43.8a1.376 1.376 0 0 1-1.293 1.3z" transform="translate(-.018 -.012)"/>
            </g>
        </g>
        <g>
            <path fill="url(#exnd9mrykb)" d="M176.863 75.99a2.715 2.715 0 1 1-2.715-2.715 2.715 2.715 0 0 1 2.715 2.715z" transform="translate(-.018 -.012)"/>
            <path fill="url(#u51il6nb1c)" d="M202.231 75.99a2.71 2.71 0 1 1-.792-1.919 2.71 2.71 0 0 1 .792 1.919z" transform="translate(-.018 -.012)"/>
            <path fill="url(#5ezlcallcd)" d="M208.486 43.014a.66.66 0 0 0-.587-.459l-36.814-3.577a1.114 1.114 0 0 1-.844-.527 11.649 11.649 0 0 0-1.376-2.1c-.871-1.064-2.508-1.027-5.5-1.05a1.642 1.642 0 0 0-1.834 1.435v.156a1.61 1.61 0 0 0 1.614 1.6h.11a14.674 14.674 0 0 1 2.939.216c.527.16.963 1.027 1.124 1.784a.05.05 0 0 0 0 .037c.023.133.225 1.151.225 1.16l4.54 23.892a8.713 8.713 0 0 0 1.642 4.035 4.5 4.5 0 0 0 3.724 1.834h26.731a1.6 1.6 0 0 0 1.628-1.513 1.573 1.573 0 0 0-1.495-1.646h-26.9a1.321 1.321 0 0 1-.917-.321 5.044 5.044 0 0 1-1.3-2.93l-.482-2.669a.069.069 0 0 1 .046-.069l31.389-5.306a.656.656 0 0 0 .555-.587l1.807-13.088a.6.6 0 0 0-.028-.3z" transform="translate(-.018 -.012)"/>
        </g>
        <path fill="url(#3y9qjncpce)" d="M261.093 61.357h6.191a3.1 3.1 0 0 0 3.1-3.1h1.032a4.127 4.127 0 1 0 0-8.254h-12.643a.775.775 0 0 0-.775.77v7.479a3.1 3.1 0 0 0 3.1 3.1zm10.318-9.286a2.064 2.064 0 1 1 0 4.127h-1.032v-4.127zm1.541 12.381h-16.509c-1.536 0-1.967-2.064-1.16-2.064h18.8c.832.001.405 2.064-1.131 2.064z" transform="translate(-.018 -.012)"/>
        <path fill="url(#hie7bj72xf)" d="M352.611 69.96l-.835 1.926h-1.243v1.738h.459l.486 3.077h-.761l1.009 5.663h.647l.647 4.127h6.136l.041-.275.605-3.838h.61l1-5.663h-.725l.486-3.077h.523V71.9h-1.307l-.839-1.926zm.362.555h6.218l.532 1.224h-7.282zm-1.889 1.94h10.089v.633h-10.089zm.312 4.815h9.378l-.794 4.53-3.889-.041-3.875.041z" transform="translate(-.018 -.012)"/>
        <path fill="url(#yuaxdanibg)" d="M320.3 77.251h-13.413a1.55 1.55 0 1 0 0 3.1H320.3a1.55 1.55 0 0 0 0-3.1zm.514 4.127h-14.446a.518.518 0 0 0-.514.518v.514a2.059 2.059 0 0 0 2.064 2.064h11.35a2.064 2.064 0 0 0 2.064-2.064v-.51a.523.523 0 0 0-.518-.518zm-13.569-5.159h12.725a1.57 1.57 0 0 0 1.124-2.444 9.353 9.353 0 0 0-14.972 0 1.557 1.557 0 0 0 1.122 2.444zm10.488-3.609a.506.506 0 1 1-.014 0zm-4.133-1.031a.507.507 0 1 1-.014 0zm-4.127 1.032a.507.507 0 1 1-.014 0z" transform="translate(-.018 -.012)"/>
        <path fill="url(#dqp4wbslvh)" d="M352.826 29.807a1.064 1.064 0 0 0-1.142.78l-.459 1.834c6.03.138 10.13 4.173 10.378 10.185l1.834-.509a1.064 1.064 0 0 0 .761-1.16 12.8 12.8 0 0 0-11.372-11.13zm-1.889 3.609l-3.21 12.235a.527.527 0 0 0 .376.642.5.5 0 0 0 .271 0l12.221-3.393c-.138-5.64-3.971-9.419-9.63-9.483zm.89 9.8a1.018 1.018 0 1 0 0-.014zm1.55-4.9a1.025 1.025 0 1 0 0-.014zm3.352 3.352a1.032 1.032 0 1 1 1.032-1.032 1.032 1.032 0 0 1-1.032 1.03z" transform="translate(-.018 -.012)"/>
        <path fill="url(#6jsl7m1joi)" d="M334.369 56.3c-2.114-.55-2.8-1.119-2.8-2 0-1.018.94-1.729 2.518-1.729 1.665 0 2.293.793 2.334 1.963h2.064a3.724 3.724 0 0 0-2.995-3.559V48.93h-2.8v2.013c-1.834.394-3.265 1.568-3.265 3.371 0 2.155 1.784 3.21 4.384 3.857 2.334.559 2.8 1.376 2.8 2.247 0 .647-.459 1.669-2.522 1.669-1.921 0-2.678-.858-2.779-1.958h-2.054a3.89 3.89 0 0 0 3.436 3.571v2.022h2.8v-1.98c1.834-.344 3.265-1.376 3.265-3.315.002-2.647-2.268-3.564-4.386-4.127z" transform="translate(-.018 -.012)"/>
        <path fill="url(#2g4fvwdxij)" d="M306.74 32.059a2.582 2.582 0 0 0 0 3.669l11.354 11.35.1.1a2.582 2.582 0 0 0 3.549-3.747L310.39 32.059a2.582 2.582 0 0 0-3.669 0zm1.61 3.068a.518.518 0 0 1 .729-.734 1.7 1.7 0 0 0 1.119.523 2.834 2.834 0 0 1 2.481 2.485 1.834 1.834 0 0 0 1.646 1.642 2.843 2.843 0 0 1 2.485 2.485 1.811 1.811 0 0 0 1.642 1.642 2.752 2.752 0 0 1 1.674.812.516.516 0 1 1-.729.729 1.72 1.72 0 0 0-1.119-.523 2.823 2.823 0 0 1-2.478-2.458 1.834 1.834 0 0 0-1.642-1.642 2.825 2.825 0 0 1-2.486-2.485 1.834 1.834 0 0 0-1.642-1.642 2.751 2.751 0 0 1-1.678-.812zm13.5 6.191a1.986 1.986 0 0 0 .119-2.8l-6.7-6.7a1.986 1.986 0 0 0-2.8.119l-.371.371 9.355 9.373zM306.63 37.8a1.986 1.986 0 0 0-.119 2.8l6.7 6.7a1.986 1.986 0 0 0 2.8-.119l.371-.371L307 37.424z" transform="translate(-.018 -.012)"/>
    </g>
</svg>
