<?xml version="1.0" standalone="no"?>
<!DOCTYPE svg PUBLIC "-//W3C//DTD SVG 20010904//EN"
 "http://www.w3.org/TR/2001/REC-SVG-20010904/DTD/svg10.dtd">
<svg version="1.0" xmlns="http://www.w3.org/2000/svg"
 width="168.000000pt" height="168.000000pt" viewBox="0 0 168.000000 168.000000"
 preserveAspectRatio="xMidYMid meet">
<metadata>
Created by potrace 1.11, written by Peter Selinger 2001-2013
</metadata>
<g transform="translate(0.000000,168.000000) scale(0.100000,-0.100000)"
fill="#000000" stroke="none">
<path d="M462 1582 c-22 -7 -55 -28 -73 -47 -19 -19 -110 -167 -203 -330 -149
-260 -170 -303 -174 -349 -6 -68 0 -81 181 -395 81 -139 147 -257 147 -261 0
-14 82 -82 119 -98 27 -12 76 -16 204 -17 l169 -2 28 45 c22 35 26 50 19 64
-5 10 -13 19 -17 19 -4 1 -84 2 -178 3 -132 2 -177 5 -193 16 -12 8 -93 141
-181 294 -125 218 -160 287 -160 315 0 28 35 97 162 319 90 156 172 289 182
294 22 12 656 16 691 5 26 -9 34 -22 211 -327 112 -195 147 -263 147 -290 0
-25 -17 -63 -61 -137 -135 -225 -150 -279 -106 -387 13 -33 24 -66 24 -73 0
-20 -32 -29 -98 -27 -78 3 -88 -1 -117 -50 -26 -45 -25 -72 3 -80 10 -2 120
-4 245 -3 190 2 229 4 237 17 15 24 13 28 -51 93 -65 67 -125 164 -132 212 -4
32 6 52 119 250 66 114 69 123 69 185 l0 65 -172 301 c-95 166 -185 314 -200
329 -57 57 -66 59 -450 59 -265 1 -362 -2 -391 -12z"/>
<path d="M775 1235 c-17 -7 -42 -25 -56 -41 -27 -30 -263 -430 -274 -465 -11
-35 12 -49 80 -49 47 0 66 4 77 18 8 9 54 85 102 169 48 83 94 157 101 163 12
10 20 9 37 -2 36 -23 57 -28 64 -16 4 6 3 8 -4 4 -6 -3 -13 -2 -16 3 -7 10 20
9 30 -2 4 -4 13 -2 21 4 10 9 13 8 13 -2 0 -8 6 -5 15 7 13 16 14 16 9 1 -5
-13 -2 -16 10 -11 9 3 13 11 9 18 -4 7 -1 7 8 -1 39 -31 -2 70 -64 160 -32 46
-107 66 -162 42z"/>
<path d="M902 982 c-7 -2 -12 -12 -12 -23 0 -21 39 -100 54 -111 6 -4 41 -8
79 -8 37 0 67 -2 67 -5 0 -2 -8 -19 -18 -37 -11 -18 -33 -59 -51 -90 -57 -101
-72 -101 -130 3 -20 36 -46 76 -58 89 l-22 23 12 -34 c6 -19 17 -38 22 -42 6
-5 3 -7 -7 -3 -10 3 -18 2 -18 -3 0 -5 -10 -11 -22 -14 -21 -5 -21 -5 -6 7 10
7 14 17 10 21 -4 5 -1 5 6 1 6 -4 12 -3 12 3 0 5 -9 9 -19 8 -12 -1 -17 -6
-13 -16 3 -9 1 -12 -5 -8 -7 4 -10 0 -9 -9 1 -8 9 -20 17 -25 11 -7 11 -9 1
-9 -7 0 -11 -4 -8 -8 2 -4 0 -14 -5 -22 -7 -11 -8 -7 -5 13 4 22 1 27 -15 27
-10 0 -19 -5 -19 -11 0 -5 -5 -7 -11 -4 -6 4 -5 -2 2 -13 7 -12 17 -19 21 -16
4 3 5 -2 2 -10 -6 -16 74 -172 102 -200 26 -26 93 -39 135 -27 38 11 80 48
102 89 7 12 55 94 107 183 98 167 139 240 140 249 0 3 -5 12 -10 20 -8 12 -43
15 -213 16 -112 0 -209 -2 -215 -4z m-142 -292 c0 -5 -5 -10 -11 -10 -5 0 -7
5 -4 10 3 6 8 10 11 10 2 0 4 -4 4 -10z"/>
</g>
</svg>
